<svg xmlns="http://www.w3.org/2000/svg" viewBox="0 0 200 200" fill="none">
  <g id="flame" stroke="#2B2B2B" stroke-width="5" stroke-linecap="round" stroke-linejoin="round">
    <path
      d="M100 176
         C78 176 61 159 61 137
         C61 116 74 101 86 88
         C93 81 97 71 97 61
         C116 72 126 88 126 102
         C126 84 135 69 148 56
         C152 67 156 77 156 90
         C156 103 151 113 144 121
         C152 126 158 136 158 146
         C158 163 142 176 122 176
         Z"
      fill="#EE6B39"
    />
    <path
      d="M101 168
         C90 168 82 160 82 149
         C82 139 88 130 97 122
         C102 117 104 111 104 104
         C114 111 119 120 119 128
         C119 118 124 109 131 101
         C135 108 137 114 137 122
         C137 130 133 138 128 143
         C132 146 135 151 135 156
         C135 163 128 168 118 168"
    />
    <path
      d="M104 154
         C98 151 95 145 97 138
         C98 133 101 129 105 125
         C107 130 110 134 114 138
         C117 141 119 145 119 149
         C119 155 114 160 107 160"
    />
  </g>
</svg>
