<?xml version="1.0" encoding="UTF-8"?>
<svg xmlns="http://www.w3.org/2000/svg" viewBox="0 0 1254 1254" preserveAspectRatio="xMidYMid meet">
<path d="M0 0 C1.22220497 -0.00146719 1.22220497 -0.00146719 2.46910095 -0.00296402 C24.16809521 -0.02790126 45.6789767 0.54890209 67.3125 2.375 C68.21394745 2.4504303 69.1153949 2.5258606 70.04415894 2.60357666 C75.18305406 3.04438311 80.31130331 3.55598326 85.4375 4.125 C86.19023193 4.20770142 86.94296387 4.29040283 87.71850586 4.37561035 C120.42430964 8.01128192 155.72656615 12.05436267 185.3125 27.375 C186.74529297 28.11169922 186.74529297 28.11169922 188.20703125 28.86328125 C196.71131409 33.59354951 204.11620804 39.94534898 207.3125 49.375 C207.84523933 53.18344349 207.8339247 56.91036806 207.75 60.75 C207.7389624 61.79623535 207.7279248 62.8424707 207.71655273 63.92041016 C207.25821655 85.4835669 207.25821655 85.4835669 203.3125 93.375 C204.01375 93.41238281 204.715 93.44976563 205.4375 93.48828125 C216.44671144 94.2511478 226.0735638 97.44086627 233.6875 105.8125 C238.61644375 112.06743677 239.14395098 118.62198956 238.3125 126.375 C236.48244913 134.0145412 231.71393233 139.04837907 225.3125 143.375 C221.73997979 145.15312842 218.15385239 146.31567123 214.3125 147.375 C213.35988281 147.66117188 212.40726563 147.94734375 211.42578125 148.2421875 C206.32516745 149.61367136 201.70847854 150.47122811 196.42578125 150.21875 C187.46936615 149.54311598 187.46936615 149.54311598 179.48779297 152.81835938 C176.18103861 156.61903917 173.83853219 160.96157915 171.46533203 165.38232422 C168.82448206 169.94704626 164.91745742 173.57053158 161.3125 177.375 C160.13963153 178.72379874 158.97266814 180.07776166 157.8125 181.4375 C145.20018269 195.76189658 127.58832205 211.77539759 109.3125 218.375 C110.62921755 223.04654578 111.96438988 227.71244304 113.3125 232.375 C113.63605469 233.49777344 113.95960938 234.62054687 114.29296875 235.77734375 C114.60878906 236.84082031 114.92460938 237.90429688 115.25 239 C115.66572266 240.41152344 115.66572266 240.41152344 116.08984375 241.8515625 C117.16203698 244.9413973 118.36864608 247.88679731 119.65625 250.890625 C122.49994795 257.63259586 124.70729982 264.51644933 126.875 271.5 C129.15461455 278.8152398 131.48199555 286.02429061 134.40405273 293.10986328 C135.80439408 296.60149643 136.9493032 300.15836504 138.0625 303.75 C138.28292969 304.43449219 138.50335937 305.11898438 138.73046875 305.82421875 C139.78784515 309.2065097 140.3125 311.79178671 140.3125 315.375 C140.86035156 315.32859375 141.40820312 315.2821875 141.97265625 315.234375 C157.84978321 314.51151394 170.69598536 321.03904603 182.3125 331.375 C191.83694424 342.74490305 197.51622282 355.35410555 196.734375 370.41015625 C195.03231792 386.4063408 188.18678638 399.13594576 175.859375 409.421875 C164.12490089 418.0566767 150.80757731 421.6927343 136.3125 420.375 C120.28784485 417.20799715 109.02590708 408.84436014 99.46484375 395.8671875 C91.72481253 384.038442 90.44133719 369.51046521 92.96875 355.8203125 C94.88876466 348.91819083 97.95472223 343.0031271 101.7265625 336.93359375 C102.24992187 336.08925781 102.77328125 335.24492188 103.3125 334.375 C103.75335937 333.76785156 104.19421875 333.16070313 104.6484375 332.53515625 C105.75691429 328.92934645 104.37939558 325.93131861 103.3125 322.375 C101.95898438 322.08109375 101.95898438 322.08109375 100.578125 321.78125 C87.52503969 318.86459557 74.72595447 315.118721 61.8828125 311.40087891 C56.3688223 309.81651165 50.84052697 308.28451146 45.3125 306.75 C21.7863806 300.19962687 21.7863806 300.19962687 10.3125 296.375 C3.81131354 295.77821301 -2.00780272 296.91955574 -8.25 298.625 C-10.00643218 299.08623555 -11.76294373 299.54716892 -13.51953125 300.0078125 C-14.82011475 300.35440918 -14.82011475 300.35440918 -16.14697266 300.70800781 C-18.51302185 301.32919236 -20.88360189 301.91918502 -23.26171875 302.4921875 C-31.10157513 304.30207202 -31.10157513 304.30207202 -38.6875 306.9375 C-42.37109959 308.44150245 -46.16131154 309.07264874 -50.0625 309.75 C-56.70982548 310.90825199 -63.14529415 312.45466129 -69.59838867 314.4309082 C-73.82119093 315.69661676 -77.86795265 316.58188964 -82.25 317.10546875 C-91.76572963 318.07181173 -91.76572963 318.07181173 -99.20947266 323.359375 C-101.6643192 328.24681566 -102.83004572 333.35569464 -103.98632812 338.66992188 C-104.99460829 342.55980498 -106.59710945 346.11316269 -108.19335938 349.79370117 C-110.02296137 354.17906581 -111.65532662 358.62186463 -113.28125 363.0859375 C-113.92569476 364.84247965 -114.57022718 366.59898964 -115.21484375 368.35546875 C-116.20787494 371.0654829 -117.19710759 373.7766403 -118.17626953 376.49169922 C-119.13757742 379.15235138 -120.11432523 381.80690997 -121.09375 384.4609375 C-121.38036499 385.26727631 -121.66697998 386.07361511 -121.96228027 386.90438843 C-124.19570757 392.89842223 -126.96358413 397.04021497 -131.875 401.25 C-138.22877683 403.79151073 -145.42835637 402.82956613 -151.6875 400.375 C-155.92306331 397.67964153 -158.07148976 395.13797755 -159.6875 390.375 C-161.68307034 378.63908442 -156.3477494 367.83567066 -152.25 357.125 C-151.50965115 355.14794966 -150.77105161 353.1702434 -150.03417969 351.19189453 C-148.25205492 346.41882628 -146.449426 341.65383971 -144.64019775 336.89099121 C-143.33179144 333.4356049 -142.04529755 329.97249969 -140.76171875 326.5078125 C-138.16879548 319.51949865 -135.5726651 312.53835525 -132.765625 305.6328125 C-130.7562417 300.63607862 -128.96113585 295.57402783 -127.16455078 290.49755859 C-124.08731659 281.85723152 -120.83247331 273.28007123 -117.625 264.6875 C-116.2168721 260.91297493 -114.80932759 257.13823292 -113.40234375 253.36328125 C-113.06965988 252.47078674 -112.73697601 251.57829224 -112.39421082 250.65875244 C-110.3847443 245.2627105 -108.39431921 239.86037904 -106.43725586 234.44506836 C-105.15846946 230.91435202 -103.83689928 227.3992929 -102.51953125 223.8828125 C-101.69353006 221.39317511 -101.14531372 218.95540459 -100.6875 216.375 C-101.68007813 215.78074219 -102.67265625 215.18648437 -103.6953125 214.57421875 C-121.20284506 203.95293892 -137.64064095 191.29031742 -150.6875 175.375 C-151.34621094 174.62734375 -152.00492187 173.8796875 -152.68359375 173.109375 C-164.64991201 159.2019962 -173.46880674 143.1651168 -180.6875 126.375 C-181.16703125 125.29089844 -181.6465625 124.20679688 -182.140625 123.08984375 C-189.73334936 104.08400524 -192.81783899 82.1781005 -193 61.8125 C-193.02900391 60.72775391 -193.05800781 59.64300781 -193.08789062 58.52539062 C-193.16067728 49.30388095 -191.00575936 43.18467953 -184.6875 36.375 C-165.28300883 20.31806725 -139.05719168 13.88120055 -114.71337891 9.87402344 C-112.57868998 9.52197372 -110.44567948 9.15967202 -108.31396484 8.79003906 C-99.52264084 7.26761878 -90.71793051 5.91233222 -81.88134766 4.68218994 C-80.44304239 4.48079359 -79.00519197 4.27611563 -77.56787109 4.06781006 C-51.77021152 0.33098283 -26.01467635 0.00287824 0 0 Z " fill="#2F2F2E" transform="translate(610.6875,591.625)"/>
<path d="M0 0 C40.8248517 26.48098489 40.8248517 26.48098489 45.6875 44.75 C47.41873232 62.8675475 39.56933116 74.56838036 28.875 88.55859375 C27.47120176 90.6258686 27.47120176 90.6258686 27.97436523 92.68603516 C29.16522297 96.13263266 31.55118663 98.82403951 33.75 101.6875 C49.72882585 123.04005701 60.90707047 146.72339596 66.6875 172.75 C66.99107422 173.95462891 66.99107422 173.95462891 67.30078125 175.18359375 C73.83193463 201.55748794 71.12796739 229.29904301 66.6875 255.75 C66.4711792 257.05952637 66.4711792 257.05952637 66.25048828 258.39550781 C61.17728113 287.75246655 48.38228975 317.83217584 30.6875 341.75 C30.07519531 342.65878906 29.46289062 343.56757812 28.83203125 344.50390625 C24.99292838 349.97704376 21.22754255 353.04981563 14.6875 354.75 C-1.69498774 357.45421103 -18.8615155 342.60082201 -31.3125 333.75 C-40.27083497 327.16603223 -48.96796227 320.30348589 -57.1171875 312.734375 C-59.31645571 310.74642438 -61.59167022 308.93663092 -63.9375 307.125 C-73.74703783 299.39533253 -82.72597972 290.47483474 -91.46362305 281.56665039 C-93.20867321 279.85201706 -95.00657978 278.2662885 -96.87109375 276.68359375 C-102.10721246 272.12924251 -106.98038852 267.22807341 -111.875 262.3125 C-112.78185547 261.40951172 -113.68871094 260.50652344 -114.62304688 259.57617188 C-119.16746838 255.02515948 -123.55802767 250.41545647 -127.74584961 245.53491211 C-130.13991321 242.8073137 -132.71529956 240.28225967 -135.3125 237.75 C-139.19533028 233.914514 -142.93083423 230.03166154 -146.47265625 225.875 C-148.8627737 223.11443972 -151.33754158 220.43418 -153.8125 217.75 C-158.05059303 213.1422645 -162.22535278 208.49208562 -166.3125 203.75 C-167.21480058 202.71350409 -168.11714857 201.67704944 -169.01953125 200.640625 C-185.70951915 181.40267229 -201.29138404 161.01391892 -215.3125 139.75 C-215.94381836 138.79262939 -215.94381836 138.79262939 -216.58789062 137.81591797 C-243.11936142 97.23417903 -243.11936142 97.23417903 -241.828125 79.94921875 C-238.15750366 64.29346259 -219.64640488 52.89046875 -207.09863281 44.84082031 C-191.37144112 35.23596896 -174.25094299 29.49919226 -156.3125 25.75 C-155.46945312 25.56179688 -154.62640625 25.37359375 -153.7578125 25.1796875 C-132.02185392 21.36026986 -104.40285567 20.71988144 -83.3125 27.75 C-79.94171917 28.62096029 -79.94171917 28.62096029 -76.3125 27.75 C-73.74702769 24.9313143 -72.08437425 21.66911204 -70.3125 18.3125 C-63.35754824 5.63923898 -55.76248701 -6.94284399 -41.30859375 -11.59375 C-25.19571601 -15.12303743 -13.26721865 -8.26035346 0 0 Z " fill="#2E2E2D" transform="translate(832.3125,261.25)"/>
<path d="M0 0 C0.77986267 0.00370605 1.55972534 0.00741211 2.36322021 0.01123047 C30.43557599 0.19986092 58.52811412 6.09577704 83.4375 19.4375 C84.14277832 19.80601074 84.84805664 20.17452148 85.57470703 20.55419922 C96.11323458 26.08041743 106.04770957 32.11865494 115.4375 39.4375 C115.96085938 39.84516602 116.48421875 40.25283203 117.0234375 40.67285156 C154.3254411 70.15720889 176.43862414 109.6917516 183.01416016 156.69970703 C183.67751954 162.55670367 183.77801965 168.36018764 183.75 174.25 C183.74508545 175.49974609 183.7401709 176.74949219 183.73510742 178.03710938 C183.49253806 197.69144704 180.5312783 216.48978664 175.4375 235.4375 C175.09239485 236.7682154 174.74733894 238.09894358 174.40234375 239.4296875 C171.28386047 250.9693382 166.4502735 261.52777527 161.375 272.3125 C160.73957275 273.66903687 160.73957275 273.66903687 160.09130859 275.05297852 C157.83698052 279.78460469 155.48589233 284.17115877 152.4375 288.4375 C150.43838317 285.86828192 148.74503352 283.32500773 147.23046875 280.4453125 C146.81619629 279.66913574 146.40192383 278.89295898 145.97509766 278.09326172 C145.52956543 277.25811035 145.0840332 276.42295898 144.625 275.5625 C124.09258746 237.7403657 96.69707043 203.7922302 68.87451172 171.12890625 C67.44350998 169.44457393 66.02012965 167.7540372 64.59765625 166.0625 C57.42546033 157.56939737 49.91144433 149.44508761 42.26513672 141.37841797 C40.59033743 139.59981065 38.93350692 137.80700218 37.28515625 136.00390625 C29.30931428 127.30061378 21.0251024 118.91723494 12.6875 110.5625 C12.09762299 109.97003479 11.50774597 109.37756958 10.8999939 108.76715088 C9.21228434 107.07359377 7.52091155 105.38379332 5.828125 103.6953125 C5.31415665 103.17936523 4.80018829 102.66341797 4.27064514 102.13183594 C1.60633831 99.44981985 1.60633831 99.44981985 -1.5625 97.4375 C-1.5625 96.7775 -1.5625 96.1175 -1.5625 95.4375 C-2.41134766 95.08365234 -2.41134766 95.08365234 -3.27734375 94.72265625 C-6.08552052 93.14335684 -7.90632481 91.21063994 -10.125 88.875 C-14.48518447 84.41863499 -19.05472075 80.46641024 -23.921875 76.578125 C-26.31352322 74.63933325 -28.59985028 72.63541419 -30.875 70.5625 C-36.85128172 65.20080044 -43.20349764 60.33190666 -49.5625 55.4375 C-50.5208374 54.6937915 -50.5208374 54.6937915 -51.49853516 53.93505859 C-62.86320468 45.13176061 -74.57038181 36.69370461 -87.5625 30.4375 C-87.5625 29.7775 -87.5625 29.1175 -87.5625 28.4375 C-74.88555548 18.6383676 -60.81214614 11.57465961 -45.625 6.625 C-44.35837524 6.207948 -44.35837524 6.207948 -43.06616211 5.7824707 C-28.86525359 1.39105731 -14.78896229 -0.12738467 0 0 Z " fill="#F9F9F9" transform="translate(706.5625,297.5625)"/>
<path d="M0 0 C0.55042969 0.32871094 1.10085938 0.65742187 1.66796875 0.99609375 C24.05379978 13.8028715 48.52036856 20.66388884 73.69628906 25.54394531 C76.06125023 26.01212542 78.4170573 26.51392405 80.7734375 27.0234375 C93.77400855 29.80220539 106.78162713 31.62172959 120 33 C121.23169922 33.13825195 122.46339844 33.27650391 123.73242188 33.41894531 C146.87732872 35.94063585 169.99081279 36.29564875 193.24848557 36.31052017 C195.59780558 36.31247734 197.94710314 36.31759549 200.29641724 36.3230896 C227.42200295 38.16713117 227.42200295 38.16713117 253 33 C255.02122218 32.73051611 257.04885528 32.50865648 259.078125 32.30859375 C274.91829017 30.6368791 290.47317983 28.36119828 306.0625 25.0625 C306.84475952 24.89950409 307.62701904 24.73650818 308.4329834 24.568573 C317.98387634 22.56454388 327.27459818 20.13215295 336.55688477 17.11572266 C339.64785379 16.11411105 342.74972632 15.19953759 345.875 14.3125 C353.86567339 11.66365799 361.06508175 7.18417907 368.31103516 2.96801758 C369.52021039 2.27498783 370.75343834 1.62328083 372 1 C369.40384615 30.59615385 369.40384615 30.59615385 364 36 C360.96923242 36.11097725 357.95743306 36.16167102 354.92578125 36.17578125 C353.04230666 36.19898982 351.15884309 36.22310757 349.27539062 36.24804688 C346.29753363 36.28310356 343.3200788 36.31246574 340.34204102 36.32592773 C337.47362014 36.34144303 334.6063869 36.38168886 331.73828125 36.42578125 C330.4113903 36.42291862 330.4113903 36.42291862 329.05769348 36.41999817 C323.54905614 36.528507 320.38684858 37.3558052 316 41 C312.21928736 44.94776739 310.63647127 49.06783056 310.3125 54.5 C310.58673585 60.30734746 312.75501428 64.09571812 317 68 C320.61746425 70.50706475 323.13106718 71.38913595 327.51953125 71.51171875 C328.54111328 71.54716797 329.56269531 71.58261719 330.61523438 71.61914062 C331.67033203 71.64169922 332.72542969 71.66425781 333.8125 71.6875 C334.88693359 71.72166016 335.96136719 71.75582031 337.06835938 71.79101562 C339.71213533 71.87326643 342.35558921 71.94249209 345 72 C340.60667363 81.10191182 332.84599272 88.67237966 326 96 C325.24074219 96.81339844 324.48148438 97.62679687 323.69921875 98.46484375 C296.970296 126.1561827 260.46155148 143.15988657 223 150 C222.17693359 150.16371094 221.35386719 150.32742188 220.50585938 150.49609375 C170.96943697 160.26611349 116.15469191 148.74307963 74.25 120.9375 C66.74093036 115.77163899 59.67333138 110.2053901 53 104 C52.3414502 103.3905957 51.68290039 102.78119141 51.00439453 102.15332031 C23.34646407 76.26808974 4.81719166 42.82885889 0 5 C-0.05251699 3.33416095 -0.08544533 1.66447495 0 0 Z " fill="#F9F9F9" transform="translate(432,670)"/>
<path d="M0 0 C3.58453773 0.01140438 7.16877863 0.00457864 10.75330639 -0.00686836 C37.74011605 -0.08004934 64.49140873 1.38091764 91.29858398 4.63574219 C92.20878296 4.74368103 93.11898193 4.85161987 94.0567627 4.96282959 C106.82969147 6.48028672 119.52186763 8.19433416 132.12084961 10.82421875 C134.20202688 11.25371378 136.2868803 11.64921124 138.37670898 12.03417969 C156.46487195 15.43944114 181.55053118 20.73265073 193.33764648 36.41308594 C195.11379504 40.06577406 195.12234399 43.34584564 194.23608398 47.26074219 C187.97698789 60.00247353 171.13320771 65.66010432 158.57104492 70.17919922 C148.80103072 73.34765917 138.69406825 75.48355857 128.66259766 77.64746094 C126.30252695 78.0235383 126.30252695 78.0235383 125.23608398 79.26074219 C122.70974332 79.74547721 120.19529185 80.17336383 117.65405273 80.56542969 C116.86433578 80.68921494 116.07461884 80.81300018 115.26097107 80.9405365 C112.6494894 81.34564911 110.03676436 81.74174288 107.42358398 82.13574219 C106.09275787 82.33833145 106.09275787 82.33833145 104.73504639 82.54501343 C89.92249985 84.78150111 75.12592418 86.34270471 60.18603516 87.41064453 C59.09718773 87.4893856 59.09718773 87.4893856 57.98634338 87.56971741 C56.03566416 87.70815584 54.08437494 87.83792268 52.13305664 87.96704102 C49.29937549 88.08129793 49.29937549 88.08129793 47.23608398 89.26074219 C45.58903568 89.36145592 43.93795201 89.39910381 42.2878418 89.40600586 C41.24804169 89.412285 40.20824158 89.41856415 39.13693237 89.42503357 C37.99918365 89.4262471 36.86143494 89.42746063 35.68920898 89.42871094 C34.50739044 89.43294571 33.3255719 89.43718048 32.10794067 89.44154358 C28.23395316 89.45151285 24.36008218 89.45144821 20.48608398 89.44824219 C19.16844055 89.44763794 17.85079712 89.44703369 16.4932251 89.44641113 C-18.57684967 89.41252081 -54.19979684 88.92071497 -88.67163086 81.68945312 C-91.33496885 81.14373299 -94.00855585 80.75586883 -96.70141602 80.38574219 C-123.57383528 76.27805616 -160.07217679 69.90380866 -178.76391602 48.26074219 C-180.02201679 44.48643987 -180.47844254 41.16537701 -179.76391602 37.26074219 C-174.29161839 26.33943331 -158.86089061 21.66979565 -148.07250977 17.95605469 C-126.46089066 10.8696141 -103.91714062 6.98281269 -81.32250977 4.75292969 C-77.50063141 4.36959391 -73.70785027 3.83528058 -69.90454102 3.29931641 C-62.272709 2.26161508 -54.64397607 1.62083529 -46.95532227 1.15136719 C-45.9404584 1.08855938 -45.9404584 1.08855938 -44.90509224 1.02448273 C-29.93855412 0.1160729 -14.99034187 -0.04799019 0 0 Z " fill="#F5F5F5" transform="translate(610.763916015625,604.7392578125)"/>
<path d="M0 0 C20.90958769 0.63160917 48.29907818 30.10593826 62.94921875 43.57421875 C65.5429266 45.89355089 68.22463834 48.07154611 70.9375 50.25 C74.93678295 53.48430056 78.62851589 56.84020996 82.16796875 60.5703125 C83.97237682 62.35171355 85.80726369 63.97783425 87.734375 65.62109375 C93.29128905 70.44705445 98.4478905 75.67340142 103.63989258 80.88452148 C105.371447 82.621436 107.10828359 84.35293889 108.84570312 86.08398438 C114.04499214 91.28048003 119.15432449 96.48752103 123.92749023 102.08422852 C125.78267505 104.23176926 127.77641469 106.21219336 129.8125 108.1875 C133.16183729 111.49736698 136.31175956 114.89496949 139.375 118.46875 C141.29852777 120.67149955 143.27355114 122.820637 145.26269531 124.96411133 C150.09065855 130.16848362 154.67258096 135.49752919 159.125 141.03125 C161.32287098 143.70009334 163.60577516 146.2602066 165.9375 148.8125 C169.2704368 152.47873048 172.3850182 156.22780551 175.38671875 160.16796875 C177.26856995 162.63002559 179.18483608 165.06274613 181.10913086 167.49169922 C199.70133459 190.99548213 217.25592587 215.33668199 231.9375 241.5 C232.35161133 242.23492676 232.76572266 242.96985352 233.19238281 243.72705078 C236.642895 249.99291347 238.87529289 255.37119244 238.3125 262.6875 C236.3125 264.6875 236.3125 264.6875 232.65234375 265.046875 C228.10601659 264.91993409 224.70818757 263.26720771 220.875 260.9375 C219.85237061 260.33784424 219.85237061 260.33784424 218.80908203 259.72607422 C196.90417339 246.62309238 177.1039354 229.85998097 158.3125 212.6875 C157.29960901 211.7680861 156.28658184 210.84882221 155.2734375 209.9296875 C150.4270207 205.52180259 145.64170205 201.08314168 141.05761719 196.40014648 C139.32244276 194.69725776 137.5253129 193.12032052 135.67578125 191.54296875 C131.00004946 187.47408498 126.62020883 183.14244908 122.25 178.75 C121.48623047 177.99009766 120.72246094 177.23019531 119.93554688 176.44726562 C116.44153798 172.94727896 113.0324401 169.42330195 109.80859375 165.671875 C105.92390675 161.15938236 101.68990736 157.03774141 97.4375 152.875 C91.6174141 147.12562488 86.15260906 141.37416382 81.11328125 134.92578125 C79.44848075 132.85651729 77.72246382 131.02848093 75.8125 129.1875 C72.1663804 125.65792304 69.05923347 121.77199554 65.8828125 117.8203125 C63.56141993 114.95829665 61.14199828 112.19197477 58.70532227 109.42797852 C51.72017297 101.4961126 45.23632598 93.26493563 38.90332031 84.80615234 C37.33931118 82.72320709 35.76159523 80.65140459 34.1796875 78.58203125 C20.33692202 60.41367631 8.03070608 41.38802255 -1.6875 20.6875 C-2.14511719 19.71425781 -2.60273437 18.74101562 -3.07421875 17.73828125 C-5.36442853 12.49088831 -6.30142904 8.41750434 -5.6875 2.6875 C-3.6875 0.6875 -3.6875 0.6875 0 0 Z " fill="#F8F8F8" transform="translate(609.6875,338.3125)"/>
<path d="M0 0 C1.11568359 0.49306641 1.11568359 0.49306641 2.25390625 0.99609375 C12.10629308 5.81392758 17.83232648 14.09059602 22 24 C25.06016332 33.18048997 24.03725688 45.58693448 19.8046875 54.18359375 C14.06448784 63.14178413 7.16834872 70.27513615 -3 74 C-4.0725 74.433125 -5.145 74.86625 -6.25 75.3125 C-17.55427349 77.38495014 -27.82381351 76.5452746 -37.62109375 70.33984375 C-46.29942185 63.90704956 -53.20542352 55.86552316 -55 45 C-56.27080917 33.5927366 -55.83963037 23.61245349 -49 14 C-48.36964844 13.10796875 -47.73929688 12.2159375 -47.08984375 11.296875 C-35.72953985 -2.88757921 -16.65776325 -8.14746044 0 0 Z " fill="#F4F4F4" transform="translate(771,923)"/>
<path d="M0 0 C6.11533035 1.47843151 12.1543666 3.04767237 18.15625 4.9375 C27.42016895 7.59905225 36.82280156 8.62583245 46.375 9.75 C52.52125 10.4925 58.6675 11.235 65 12 C65 24.87 65 37.74 65 51 C49 55 49 55 41.875 56.75 C34.72746721 58.51824209 27.62159006 60.43740106 20.51174927 62.35067749 C-11.55647856 70.97661055 -11.55647856 70.97661055 -27 74 C-26.49485513 68.94855128 -25.29732794 65.48313511 -23 61 C-20.40570696 54.73791335 -18.0922762 48.38374367 -16 41.9375 C-14.33734012 36.83554772 -12.33145107 31.94855405 -10.2265625 27.015625 C-8.58998236 22.99193114 -7.24685367 18.89554921 -5.90625 14.765625 C-4.24458978 9.6946964 -2.43955912 4.75401264 0 0 Z " fill="#F8F8F8" transform="translate(546,824)"/>
<path d="M0 0 C6.35647483 5.67193138 11.37026928 15.32745271 12.05078125 23.8046875 C12.48522122 36.13097548 9.63395565 44.79572611 1.66015625 54.4609375 C-1.29806291 57.50508004 -4.44095081 59.51497092 -8.22265625 61.3984375 C-9.35703125 61.9965625 -10.49140625 62.5946875 -11.66015625 63.2109375 C-19.66432354 65.968809 -30.76283664 65.73041736 -38.72265625 62.8359375 C-49.59939949 57.52705092 -56.13863662 49.94227653 -60.09765625 38.5234375 C-63.05502131 27.22524044 -61.06496061 18.25969529 -55.47265625 8.2734375 C-40.66958008 -10.64160428 -19.53112251 -14.07339232 0 0 Z " fill="#2F2F2F" transform="translate(835.22265625,381.6015625)"/>
<path d="M0 0 C8 24 16 48 24 72 C20.63911726 73.13216789 18.63434193 72.8545589 15.2734375 71.8125 C13.86819824 71.38771362 13.86819824 71.38771362 12.43457031 70.9543457 C11.42491211 70.63941162 10.41525391 70.32447754 9.375 70 C7.21171647 69.34507769 5.04762261 68.69282723 2.8828125 68.04296875 C1.75649414 67.70442871 0.63017578 67.36588867 -0.53027344 67.01708984 C-7.2879669 65.03618983 -14.102998 63.26403853 -20.91650391 61.48632812 C-27.09105945 59.85497969 -33.13809582 58.00173994 -39.18359375 55.94360352 C-43.13275177 54.62048495 -47.12112965 53.45698868 -51.125 52.3125 C-58.73928571 50.13035714 -58.73928571 50.13035714 -61 49 C-61 36.13 -61 23.26 -61 10 C-58.07125 9.773125 -55.1425 9.54625 -52.125 9.3125 C-43.42246992 8.5431692 -34.889427 7.21494113 -26.3125 5.5625 C-25.2395166 5.35729736 -24.1665332 5.15209473 -23.06103516 4.94067383 C-17.2983476 3.79325192 -11.72471674 2.41470228 -6.14526367 0.56616211 C-4 0 -4 0 0 0 Z " fill="#F8F8F8" transform="translate(685,826)"/>
<path d="M0 0 C6 2 6 2 12 4 C10.08202421 11.67563102 7.60196411 18.92583218 4.625 26.25 C1.96371271 32.90670932 -0.62205799 39.54754434 -2.8125 46.375 C-4.27354511 50.90225203 -5.88531919 55.18771502 -7.8984375 59.4921875 C-10.27289059 64.89785731 -12.2249011 70.48305455 -14.26757812 76.02075195 C-14.99636834 77.99018603 -15.73336379 79.95636163 -16.47265625 81.921875 C-18.13014197 86.33520626 -19.75155314 90.7615616 -21.375 95.1875 C-23.39381256 100.68448215 -25.43628699 106.16840803 -27.5625 111.625 C-29.48360415 116.56948117 -31.25802561 121.55315257 -33 126.5625 C-35.03572936 132.41078309 -37.25825939 138.11996291 -39.7109375 143.80859375 C-41.63274371 148.56652004 -43.26302002 153.42599056 -44.85742188 158.30273438 C-47.14041173 165.05162768 -47.14041173 165.05162768 -50 167 C-55.15710097 167.64463762 -55.15710097 167.64463762 -57.68569946 165.71080017 C-59 164 -59 164 -59.02880859 160.25219727 C-57.965111 153.18397031 -55.11108108 146.59216319 -52.5390625 139.96484375 C-51.98624137 138.5174909 -51.43436791 137.06977577 -50.88339233 135.62171936 C-49.43729046 131.82860511 -47.97863646 128.04044365 -46.51715088 124.25323486 C-45.03776783 120.4132354 -43.57008774 116.56877123 -42.1015625 112.72460938 C-39.94734977 107.08857662 -37.78667439 101.45508482 -35.61962891 95.82397461 C-33.72269805 90.89116522 -31.84436645 85.95268137 -30 81 C-29.50030304 79.66655307 -29.000329 78.33320991 -28.5 77 C-28.2525 76.34 -28.005 75.68 -27.75 75 C-27 73 -26.25 71 -25.5 69 C-25.25330566 68.34161133 -25.00661133 67.68322266 -24.75244141 67.00488281 C-24.24572628 65.65473856 -23.73755943 64.30513837 -23.22802734 62.95605469 C-21.63779626 58.73905743 -20.1130563 54.50444283 -18.625 50.25 C-17.00542366 45.68396549 -15.28055811 41.2039551 -13.375 36.75 C-11.4901743 32.3206596 -9.9913322 27.91058678 -8.671875 23.28515625 C-7.64092482 19.77872686 -6.3275356 16.40289694 -5 13 C-4.10385256 10.66678729 -3.20803887 8.33344636 -2.3125 6 C-1.5419965 3.99987291 -0.77127569 1.99982945 0 0 Z " fill="#F2F2F2" transform="translate(522,815)"/>
<path d="M0 0 C5.65526996 4.59697383 10.60375241 9.77479291 11.375 17.203125 C11.65727718 26.6131262 10.96578838 33.18528799 4.39453125 40.39453125 C-1.34508447 45.81820482 -7.17601849 47.7614725 -14.99609375 48.06640625 C-21.66749598 47.85661373 -26.07457733 46.39727866 -30.93359375 41.79296875 C-37.5663771 34.57981685 -39.53073888 28.82680695 -39.2734375 19.0390625 C-38.66137115 11.51323262 -36.29877116 7.21535443 -30.765625 2.1015625 C-22.19456635 -5.03152605 -9.48789615 -6.13305994 0 0 Z " fill="#2F2E2E" transform="translate(768.99609375,937.37109375)"/>
<path d="M0 0 C13.14536316 6.51428506 24.80253674 15.18913409 36.39990234 24.0949707 C37.58998214 25.00843903 38.78300785 25.91809235 39.97998047 26.82250977 C47.25029973 32.33012377 54.15765182 38.07534663 55.58447266 47.59350586 C56.30017094 60.80139242 47.16838894 70.86424765 39.27587891 80.53491211 C35.50068328 78.77261522 32.96858567 76.76616023 30.27587891 73.53491211 C30.52762176 69.56779192 33.07450626 66.64474733 35.27587891 63.47241211 C39.15205211 57.87272618 40.75267582 54.44846732 40.27587891 47.53491211 C33.15543742 33.53727404 9.92158374 18.41681372 -4.72412109 13.53491211 C-6.80562683 13.26438728 -6.80562683 13.26438728 -9.03662109 13.22241211 C-10.14457031 13.16633789 -10.14457031 13.16633789 -11.27490234 13.10913086 C-15.60470346 13.86183951 -18.53036855 16.01300807 -21.23217773 19.45751953 C-22.75303955 21.69840772 -24.18834736 23.97323667 -25.59912109 26.28491211 C-26.34548828 27.47407227 -26.34548828 27.47407227 -27.10693359 28.68725586 C-28.32379075 30.62954709 -29.5255119 32.58130709 -30.72412109 34.53491211 C-34.68412109 33.54491211 -38.64412109 32.55491211 -42.72412109 31.53491211 C-40.70220874 26.48013122 -38.24794342 22.2116151 -35.41162109 17.59741211 C-34.93789063 16.81172852 -34.46416016 16.02604492 -33.97607422 15.21655273 C-25.9367208 2.07424447 -15.65702749 -7.31126929 0 0 Z " fill="#F3F3F3" transform="translate(810.72412109375,263.465087890625)"/>
<path d="M0 0 C4.70601537 3.35673823 8.96676026 7.57736053 10.67578125 13.1953125 C11.55792266 20.98756165 12.25312684 29.16128189 7.16015625 35.65625 C6.6703125 36.16414063 6.18046875 36.67203125 5.67578125 37.1953125 C5.2065625 37.68257813 4.73734375 38.16984375 4.25390625 38.671875 C-2.05965448 44.47627761 -8.07094989 45.79461951 -16.39453125 45.53515625 C-23.82955011 44.67269406 -28.3122137 40.91098393 -32.9140625 35.1875 C-37.18054898 29.16005373 -36.92987604 22.32860942 -36.32421875 15.1953125 C-34.35320564 8.51576806 -30.33618532 3.34671719 -24.69921875 -0.6796875 C-17.04977451 -4.30310846 -7.31749071 -4.33292411 0 0 Z " fill="#F8F8F8" transform="translate(823.32421875,388.8046875)"/>
<path d="M0 0 C0.68513672 -0.00322266 1.37027344 -0.00644531 2.07617188 -0.00976562 C6.08196134 0.03264408 9.20712554 0.55531749 12.8125 2.3125 C11.8125 5.3125 11.8125 5.3125 9.50952148 6.50415039 C8.49446533 6.88563232 7.47940918 7.26711426 6.43359375 7.66015625 C5.29889648 8.09457031 4.16419922 8.52898438 2.99511719 8.9765625 C1.75922852 9.43804688 0.52333984 9.89953125 -0.75 10.375 C-3.36266026 11.37114789 -5.97217747 12.37543278 -8.58203125 13.37890625 C-9.23928192 13.63036407 -9.89653259 13.8818219 -10.57369995 14.14089966 C-16.07850694 16.25214777 -21.51244424 18.50590989 -26.9375 20.8125 C-41.28790834 26.86849632 -55.79103545 32.54965159 -70.28662109 38.24707031 C-72.36558555 39.06438788 -74.44452465 39.88176993 -76.5234375 40.69921875 C-77.53594574 41.09722687 -78.54845398 41.49523499 -79.59164429 41.90530396 C-85.47234449 44.22301675 -91.32797616 46.59191514 -97.1640625 49.01953125 C-98.4545097 49.55015166 -99.74518884 50.08020846 -101.03613281 50.60961914 C-103.29540631 51.54045108 -105.54813232 52.48743658 -107.79199219 53.45483398 C-114.37728457 56.14298355 -119.21143792 56.74140859 -126.1875 55.3125 C-127.15945313 55.13589844 -128.13140625 54.95929687 -129.1328125 54.77734375 C-132.16015625 54.04492188 -132.16015625 54.04492188 -135.1875 53.3125 C-134.1875 50.3125 -134.1875 50.3125 -131.67944336 49.0324707 C-130.55675049 48.60538818 -129.43405762 48.17830566 -128.27734375 47.73828125 C-127.65620193 47.49795166 -127.03506012 47.25762207 -126.39509583 47.01000977 C-125.03242446 46.48420379 -123.66774524 45.96357994 -122.3013916 45.44741821 C-119.3090446 44.31666552 -116.32659801 43.16076125 -113.34310913 42.00688171 C-111.74891255 41.39074416 -110.1541932 40.77595772 -108.55899048 40.16242981 C-100.47570484 37.05155848 -92.4342078 33.83935016 -84.39675903 30.61224365 C-81.92315583 29.61924168 -79.44887206 28.62795489 -76.97436523 27.63720703 C-72.64397167 25.90333378 -68.3139922 24.16842938 -63.98413086 22.43322754 C-55.88779518 19.18868551 -47.79099041 15.94531759 -39.69348145 12.70370483 C-36.74816735 11.52429342 -33.80327409 10.34383572 -30.85839844 9.16333008 C-29.04103646 8.4356576 -27.22365464 7.70803467 -25.40625 6.98046875 C-24.18225494 6.48932083 -24.18225494 6.48932083 -22.93353271 5.98825073 C-20.6873941 5.08975431 -18.43822485 4.19943678 -16.1875 3.3125 C-15.45983932 3.0217308 -14.73217865 2.73096161 -13.98246765 2.43138123 C-9.07558487 0.51595519 -5.19394821 -0.12425713 0 0 Z " fill="#2F2F2F" transform="translate(653.1875,618.6875)"/>
<path d="M0 0 C0 0.99 0 1.98 0 3 C-20.17852468 12.24316667 -40.77940422 20.382728 -61.39979553 28.5745697 C-71.03328159 32.40434419 -80.64446173 36.28825197 -90.25 40.1875 C-90.98488647 40.48547485 -91.71977295 40.78344971 -92.47692871 41.0904541 C-93.90246118 41.66848595 -95.3278636 42.24683862 -96.75312805 42.82553101 C-98.12034647 43.38061442 -99.48784291 43.93501362 -100.8556366 44.48867798 C-104.45880276 45.95096575 -108.04862056 47.43986736 -111.62719727 48.96142578 C-112.77602386 49.44594963 -112.77602386 49.44594963 -113.94805908 49.94026184 C-115.4115707 50.5585007 -116.87257725 51.18271739 -118.33050537 51.81401062 C-123.8078619 54.11940533 -128.16675585 54.79499068 -134 54 C-134.93199219 53.9175 -135.86398437 53.835 -136.82421875 53.75 C-139.22204362 53.53596821 -141.60973761 53.28479722 -144 53 C-144 51.68 -144 50.36 -144 49 C-113.35441803 36.24633211 -82.586539 23.79885106 -51.75585938 11.5 C-47.69497493 9.87908811 -43.63651196 8.25215268 -39.578125 6.625 C-37.49642752 5.79075604 -35.41470503 4.95657449 -33.33297729 4.12240601 C-31.99784499 3.58721975 -30.66282098 3.05176323 -29.32791138 2.51602173 C-27.48585051 1.77682068 -25.6433267 1.03877359 -23.80078125 0.30078125 C-22.75059814 -0.12033936 -21.70041504 -0.54145996 -20.6184082 -0.9753418 C-13.36482853 -3.81387549 -7.24106858 -2.78502638 0 0 Z " fill="#313131" transform="translate(718,626)"/>
<path d="M0 0 C0.61875 0.309375 1.2375 0.61875 1.875 0.9375 C1.875 2.2575 1.875 3.5775 1.875 4.9375 C-20.6287863 14.09564599 -43.16112743 23.17855939 -65.75 32.125 C-66.75530762 32.52369293 -67.76061523 32.92238586 -68.79638672 33.3331604 C-73.53836546 35.21300932 -78.28312387 37.08472787 -83.03613281 38.93652344 C-86.23682964 40.18479071 -89.41562166 41.47067942 -92.58105469 42.80566406 C-101.20501276 46.37235807 -108.71832196 47.74007627 -118.125 47.3125 C-119.87683594 47.27189453 -119.87683594 47.27189453 -121.6640625 47.23046875 C-124.48649888 47.16106458 -127.30462072 47.06340979 -130.125 46.9375 C-130.125 46.2775 -130.125 45.6175 -130.125 44.9375 C-116.18566341 39.20821853 -102.220638 33.55805607 -88.1875 28.0625 C-67.31671619 19.88782061 -46.55225035 11.44737435 -25.77690125 3.03385925 C-24.84151016 2.65506119 -23.90611908 2.27626312 -22.94238281 1.88598633 C-22.12924622 1.55657547 -21.31610962 1.22716461 -20.47833252 0.88777161 C-19.31343292 0.41738716 -19.31343292 0.41738716 -18.125 -0.0625 C-17.25220398 -0.43172073 -16.37940796 -0.80094147 -15.48016357 -1.18135071 C-10.52795101 -3.03414711 -4.87799144 -1.65851709 0 0 Z " fill="#303030" transform="translate(761.125,634.0625)"/>
<path d="M0 0 C1.20205078 0.03158203 2.40410156 0.06316406 3.64257812 0.09570312 C6.53543609 0.17638044 9.42241796 0.2900303 12.3125 0.4375 C10.22332532 2.7383453 8.47055598 3.99375271 5.58007812 5.11645508 C4.45653175 5.55966347 4.45653175 5.55966347 3.31028748 6.01182556 C2.08935143 6.47970238 2.08935143 6.47970238 0.84375 6.95703125 C-0.01141708 7.29211197 -0.86658417 7.62719269 -1.74766541 7.97242737 C-4.55822472 9.0720631 -7.37284424 10.16089764 -10.1875 11.25 C-12.14366105 12.01358837 -14.09946854 12.77808305 -16.05493164 13.54345703 C-19.0386361 14.71118366 -22.02254074 15.87836204 -25.00758362 17.04266357 C-33.35087801 20.29755157 -41.66959759 23.61117561 -49.97943115 26.95040894 C-64.65909333 32.84870747 -79.37058412 38.66269173 -94.10498047 44.42285156 C-95.86339953 45.11371842 -97.61225089 45.82933067 -99.35180664 46.56640625 C-102.21326325 47.63358271 -104.2261066 47.50713268 -107.25 47.1875 C-108.17941406 47.09984375 -109.10882813 47.0121875 -110.06640625 46.921875 C-112.61957006 46.45005337 -114.44826334 45.72308528 -116.6875 44.4375 C-116.6875 43.1175 -116.6875 41.7975 -116.6875 40.4375 C-104.31580573 34.92604973 -91.68368145 30.06629776 -79.06835938 25.14746094 C-75.07389487 23.58937708 -71.08184613 22.02517142 -67.09013367 20.46005249 C-63.49400231 19.05032507 -59.89716199 17.64241236 -56.30020142 16.23480225 C-54.54849918 15.54903643 -52.79700579 14.86273684 -51.04574585 14.17584229 C-46.89881326 12.54985124 -42.74878924 10.93312238 -38.59057617 9.33618164 C-35.28719348 8.06708663 -32.00603736 6.75396327 -28.73168945 5.41186523 C-18.79130322 1.41973355 -10.82227718 -0.56243702 0 0 Z " fill="#303030" transform="translate(595.6875,617.5625)"/>
<path d="M0 0 C7.76126135 0.60872638 17.86637846 1.61400626 23.328125 7.515625 C26.08462113 11.61172673 26.4160239 14.00771324 26 19 C23.30766677 24.72120812 19.71590736 26.90698302 14 29 C-0.67810357 33.63405619 -15.7365348 34.3734077 -31.00170898 34.37060547 C-33.72244442 34.37505718 -36.44165087 34.41174888 -39.16210938 34.44921875 C-40.90364037 34.45507485 -42.64517893 34.4590523 -44.38671875 34.4609375 C-45.59759407 34.48249405 -45.59759407 34.48249405 -46.83293152 34.50448608 C-50.4180795 34.47515491 -52.58229608 34.295665 -55.54614258 32.19775391 C-57 30 -57 30 -56.875 26.375 C-56 23 -56 23 -54 21 C-51.87043762 20.74171448 -51.87043762 20.74171448 -49.20239258 20.72875977 C-48.20407913 20.71857315 -47.20576569 20.70838654 -46.17720032 20.69789124 C-45.09391953 20.69575119 -44.01063873 20.69361115 -42.89453125 20.69140625 C-40.60872152 20.66623585 -38.32291429 20.64083798 -36.03710938 20.61523438 C-32.42733464 20.5865367 -28.8176035 20.56252661 -25.20776367 20.54370117 C-21.72811614 20.52199363 -18.24899558 20.48253593 -14.76953125 20.44140625 C-13.69637161 20.44129044 -12.62321198 20.44117462 -11.51753235 20.4410553 C-5.61926585 20.36347158 -1.15209494 19.99376683 4 17 C5.05167527 14.42267086 5.05167527 14.42267086 5 12 C3.02 10.68 1.04 9.36 -1 8 C-0.67 5.36 -0.34 2.72 0 0 Z " fill="#F3F3F3" transform="translate(811,697)"/>
<path d="M0 0 C4.58014557 11.29338313 8.2781928 22.84057891 12 34.4375 C18.55872167 55.05256647 18.55872167 55.05256647 26.125 75.3125 C31 87.34146341 31 87.34146341 31 93 C29.37750059 93.83819158 27.75191503 94.6704116 26.125 95.5 C24.76761719 96.19609375 24.76761719 96.19609375 23.3828125 96.90625 C21 98 21 98 19 98 C17.50842505 93.68228304 16.09118576 89.35880584 14.828125 84.96875 C14.51524536 83.88291626 14.51524536 83.88291626 14.19604492 82.77514648 C13.78542238 81.3410532 13.37906379 79.90572943 12.9777832 78.46899414 C11.89529918 74.69111166 10.65549803 71.06577619 9.15234375 67.43359375 C6.0840628 59.93695524 3.78518586 52.17019321 1.35449219 44.44970703 C-0.91273493 37.26442048 -3.22774215 30.15372948 -6.11132812 23.18554688 C-7.47218019 19.83874806 -8.6207001 16.43051479 -9.75 13 C-10.08064453 12.01966797 -10.08064453 12.01966797 -10.41796875 11.01953125 C-12 6.25378494 -12 6.25378494 -12 4 C-10.56570999 3.32645501 -9.12742943 2.66140299 -7.6875 2 C-6.88699219 1.62875 -6.08648438 1.2575 -5.26171875 0.875 C-3 0 -3 0 0 0 Z " fill="#F2F2F3" transform="translate(708,817)"/>
<path d="M0 0 C3.62726045 0.73389986 6.30206219 2.489302 9.30859375 4.54296875 C9.92178467 4.95015137 10.53497559 5.35733398 11.16674805 5.77685547 C16.78943714 9.53991735 22.26558471 13.4918886 27.68359375 17.54296875 C28.56789063 18.16300781 29.4521875 18.78304688 30.36328125 19.421875 C31.19085937 20.01871094 32.0184375 20.61554688 32.87109375 21.23046875 C33.60714844 21.74996094 34.34320312 22.26945312 35.1015625 22.8046875 C36.68359375 24.54296875 36.68359375 24.54296875 37.140625 26.94921875 C36.56291706 30.22783474 35.308111 31.81363561 33.18359375 34.35546875 C32.53390625 35.14566406 31.88421875 35.93585938 31.21484375 36.75 C30.70953125 37.34167969 30.20421875 37.93335938 29.68359375 38.54296875 C26.62207603 37.93488508 24.56299424 36.9715214 22.0234375 35.171875 C21.3207373 34.68428711 20.61803711 34.19669922 19.89404297 33.69433594 C19.14396973 33.17000977 18.39389648 32.64568359 17.62109375 32.10546875 C8.36993314 25.76695879 -1.3014593 20.56154527 -11.31640625 15.54296875 C-9.93835467 11.77538932 -8.23222333 8.56553311 -6.00390625 5.23046875 C-5.43027344 4.34746094 -4.85664062 3.46445312 -4.265625 2.5546875 C-2.31640625 0.54296875 -2.31640625 0.54296875 0 0 Z " fill="#F4F4F4" transform="translate(802.31640625,288.45703125)"/>
<path d="M0 0 C-2.69210624 3.59967236 -6.35335915 4.00747089 -10.5 4.9375 C-20.16168944 7.30649506 -29.53685884 10.39693614 -38.9375 13.625 C-40.06146179 14.01007217 -40.06146179 14.01007217 -41.20812988 14.40292358 C-49.283833 17.18093515 -57.3056714 20.06114987 -65.23828125 23.2265625 C-65.88180038 23.48317657 -66.52531952 23.73979065 -67.18833923 24.00418091 C-70.20434701 25.21284673 -73.20981221 26.4425762 -76.20678711 27.69775391 C-86.31076544 31.83939526 -86.31076544 31.83939526 -92 31 C-94 29 -94 29 -94.4375 26.625 C-94 24 -94 24 -91.875 22.01171875 C-80.61101347 14.12998904 -65.00938337 10.94789571 -52 7 C-51.32114746 6.79246094 -50.64229492 6.58492187 -49.94287109 6.37109375 C-46.8277083 5.44462651 -43.86572688 4.74833156 -40.625 4.5 C-37.61151865 4.21131355 -34.75626064 3.76703641 -31.8125 3.0625 C-21.23529293 0.61594602 -10.84253351 -0.32419535 0 0 Z " fill="#303030" transform="translate(545,621)"/>
<path d="M0 0 C0.99 0.99 0.99 0.99 2 2 C1.83949365 4.95520522 1.54182624 6.4791139 -0.6171875 8.5546875 C-22.67205333 21.45182358 -53.53352664 29.86327028 -79 29 C-78 27 -78 27 -76.24780273 26.27319336 C-75.48411377 26.04768799 -74.7204248 25.82218262 -73.93359375 25.58984375 C-73.06839111 25.32719727 -72.20318848 25.06455078 -71.31176758 24.79394531 C-70.36325928 24.51131836 -69.41475098 24.22869141 -68.4375 23.9375 C-53.56408152 19.34611398 -39.03668831 13.93560746 -24.65625 7.98046875 C-24.04234909 7.72695648 -23.42844818 7.47344421 -22.79594421 7.21224976 C-19.79799157 5.97278805 -16.80554988 4.72220476 -13.81958008 3.45410156 C-12.74087646 3.00389648 -11.66217285 2.55369141 -10.55078125 2.08984375 C-9.59856689 1.68628662 -8.64635254 1.28272949 -7.6652832 0.86694336 C-4.89521436 -0.03408389 -2.88973036 -0.32424689 0 0 Z " fill="#323232" transform="translate(783,646)"/>
<path d="M0 0 C4.46799571 0.97379394 7.90571645 2.66647003 10.875 6.28125 C12.17508776 11.48160105 12.15294941 15.12684931 9.75 19.84375 C6.85180219 23.21192583 4.79909162 25.1376514 0.328125 25.8828125 C-3.82767473 26.1477796 -6.67940435 25.91819361 -10 23.28125 C-13.79428515 19.20933423 -15.2430569 16.47573654 -15.05859375 10.703125 C-13.29737703 2.9926014 -7.56815704 -0.64606219 0 0 Z " fill="#F4F4F4" transform="translate(756.5625,946.46875)"/>
<path d="M0 0 C2.43758558 -0.02808997 4.87482154 -0.04733222 7.3125 -0.0625 C7.96412109 -0.07087891 8.61574219 -0.07925781 9.28710938 -0.08789062 C14.810089 -0.11310971 20.30051893 0.15902362 25.8125 0.46875 C36.10045705 1.04395913 46.38702258 1.32475935 56.6875 1.5625 C58.47982366 1.60587446 60.27214143 1.64949332 62.06445312 1.69335938 C66.37623975 1.79837223 70.68809106 1.90014121 75 2 C75 2.33 75 2.66 75 3 C68.8843308 3.14480426 62.76860982 3.28710278 56.65283203 3.42724609 C54.57957449 3.47508803 52.50633166 3.52357214 50.43310547 3.57275391 C44.52382929 3.71270293 38.61453563 3.84183097 32.70458984 3.95019531 C30.95617342 3.98239218 29.20779483 4.01674852 27.45947266 4.05371094 C25.21256285 4.09863996 22.96594466 4.12999376 20.71875 4.15625 C19.48060547 4.17494141 18.24246094 4.19363281 16.96679688 4.21289062 C14 4 14 4 11 2 C8.02550392 1.75780685 8.02550392 1.75780685 4.8125 1.875 C3.72582031 1.89304687 2.63914062 1.91109375 1.51953125 1.9296875 C0.68808594 1.95289063 -0.14335938 1.97609375 -1 2 C-0.67 1.34 -0.34 0.68 0 0 Z " fill="#333332" transform="translate(564,692)"/>
<path d="M0 0 C-0.639375 0.268125 -1.27875 0.53625 -1.9375 0.8125 C-4.33131686 1.88667752 -4.33131686 1.88667752 -5 5 C-4.01 5.33 -3.02 5.66 -2 6 C-4.81107194 6.50944993 -7.62341589 7.0077016 -10.4375 7.5 C-11.6121582 7.71462891 -11.6121582 7.71462891 -12.81054688 7.93359375 C-18.28454005 8.87971603 -23.44484438 9.13345719 -29 9 C-28 7 -28 7 -25.89868164 6.14624023 C-24.54311157 5.73160522 -24.54311157 5.73160522 -23.16015625 5.30859375 C-22.17982422 5.00373047 -21.19949219 4.69886719 -20.18945312 4.38476562 C-19.15755859 4.07216797 -18.12566406 3.75957031 -17.0625 3.4375 C-15.03215547 2.81248485 -13.0021881 2.1862428 -10.97265625 1.55859375 C-10.06781494 1.28329834 -9.16297363 1.00800293 -8.23071289 0.72436523 C-3.11872602 -0.93561781 -3.11872602 -0.93561781 0 0 Z " fill="#3B3B3B" transform="translate(733,666)"/>
<path d="M0 0 C-3.11532622 3.75916031 -6.5474081 4.0946263 -11.19140625 4.859375 C-15.26155201 5.06316533 -17.50900799 4.0170176 -21 2 C-21 1.67 -21 1.34 -21 1 C-13.98194143 -0.10087193 -7.09434233 -0.09733092 0 0 Z " fill="#404040" transform="translate(545,621)"/>
<path d="M0 0 C12.03942433 -0.13873856 23.98321123 0.26131705 36 1 C36 1.33 36 1.66 36 2 C28.08 2.495 28.08 2.495 20 3 C20 3.33 20 3.66 20 4 C14.375 4.25 14.375 4.25 11 2 C8.02550392 1.75780685 8.02550392 1.75780685 4.8125 1.875 C3.72582031 1.89304687 2.63914062 1.91109375 1.51953125 1.9296875 C0.68808594 1.95289063 -0.14335938 1.97609375 -1 2 C-0.67 1.34 -0.34 0.68 0 0 Z " fill="#525252" transform="translate(564,692)"/>
<path d="M0 0 C0.66 0.33 1.32 0.66 2 1 C1.67 1.99 1.34 2.98 1 4 C6.94 4 12.88 4 19 4 C19 4.33 19 4.66 19 5 C10.42 5 1.84 5 -7 5 C-7 4.34 -7 3.68 -7 3 C-4.69631264 1.93347808 -2.35981813 0.93578995 0 0 Z " fill="#444344" transform="translate(638,676)"/>
<path d="M0 0 C-1.77065111 0.64633275 -3.54152753 1.2920483 -5.3125 1.9375 C-6.29863281 2.29714844 -7.28476562 2.65679688 -8.30078125 3.02734375 C-11.98764361 4.35589473 -14.7783465 5.1191544 -18.6875 5.0625 C-19.89986328 5.04896484 -19.89986328 5.04896484 -21.13671875 5.03515625 C-22.05904297 5.01775391 -22.05904297 5.01775391 -23 5 C-19.36377208 2.94998375 -15.50428596 1.88938079 -11.5 0.8125 C-10.83613281 0.62236328 -10.17226563 0.43222656 -9.48828125 0.23632812 C-6.02469674 -0.70042976 -3.40419264 -1.36341389 0 0 Z " fill="#424242" transform="translate(556,890)"/>
<path d="M0 0 C0.33 0 0.66 0 1 0 C2.61153758 8.05768788 2.64386361 13.71227278 -1 21 C-1.86688859 18.10089716 -2.0458562 15.88547169 -1.66015625 12.890625 C-1.56669922 12.13652344 -1.47324219 11.38242187 -1.37695312 10.60546875 C-1.22129883 9.43951172 -1.22129883 9.43951172 -1.0625 8.25 C-0.96259766 7.45722656 -0.86269531 6.66445313 -0.75976562 5.84765625 C-0.51307129 3.89759629 -0.2574122 1.94867414 0 0 Z " fill="#515151" transform="translate(889,487)"/>
<path d="M0 0 C0.66 0.33 1.32 0.66 2 1 C1.236875 1.7425 0.47375 2.485 -0.3125 3.25 C-2.95355822 5.80014041 -2.95355822 5.80014041 -4.5625 8.25 C-6.27135463 10.33034477 -7.37821395 10.63837434 -10 11 C-8.55218207 7.55571735 -6.72305391 5.63869038 -3.875 3.25 C-3.15054688 2.63640625 -2.42609375 2.0228125 -1.6796875 1.390625 C-0.84824219 0.70226562 -0.84824219 0.70226562 0 0 Z " fill="#363737" transform="translate(743,936)"/>
<path d="M0 0 C0.66 0 1.32 0 2 0 C1.67 0.66 1.34 1.32 1 2 C0.67 1.34 0.34 0.68 0 0 Z M2 3 C2.99 3.66 3.98 4.32 5 5 C0.545 5.495 0.545 5.495 -4 6 C-4 5.34 -4 4.68 -4 4 C-4.66 3.67 -5.32 3.34 -6 3 C-2.65649854 1.88549951 -1.33342063 2.08330933 2 3 Z " fill="#272626" transform="translate(732,665)"/>
<path d="M0 0 C4.29 0 8.58 0 13 0 C10 3 10 3 6.8125 3.1875 C5.4203125 3.0946875 5.4203125 3.0946875 4 3 C4 2.34 4 1.68 4 1 C2.68 0.67 1.36 0.34 0 0 Z " fill="#4E4D4D" transform="translate(532,621)"/>
<path d="M0 0 C0.103125 0.639375 0.20625 1.27875 0.3125 1.9375 C0.539375 2.618125 0.76625 3.29875 1 4 C1.99 4.33 2.98 4.66 4 5 C4.625 7.8125 4.625 7.8125 5 11 C4.01 12.485 4.01 12.485 3 14 C-0.44419134 4.58997722 -0.44419134 4.58997722 0 0 Z " fill="#474747" transform="translate(694,851)"/>
<path d="M0 0 C-3.04117196 2.02744797 -5.48143999 3.06650449 -9 4 C-11.19140625 3.55078125 -11.19140625 3.55078125 -13 3 C-11.5903653 2.29819469 -10.17192359 1.61406042 -8.75 0.9375 C-7.96109375 0.55464844 -7.1721875 0.17179688 -6.359375 -0.22265625 C-3.74006478 -1.08564091 -2.55144824 -0.93045933 0 0 Z " fill="#454545" transform="translate(654,672)"/>
<path d="M0 0 C0.33 0 0.66 0 1 0 C1.36337162 3.27034459 1.28544288 4.60883753 -0.6875 7.3125 C-3.39116247 9.28544288 -4.72965541 9.36337162 -8 9 C-6.8553125 8.1646875 -6.8553125 8.1646875 -5.6875 7.3125 C-3.03568819 5.03070844 -1.68044905 3.02480829 0 0 Z " fill="#3F3F3F" transform="translate(767,963)"/>
<path d="M0 0 C3.465 1.485 3.465 1.485 7 3 C6.67 3.66 6.34 4.32 6 5 C2.37 4.34 -1.26 3.68 -5 3 C-5 2.67 -5 2.34 -5 2 C-3.35 2 -1.7 2 0 2 C0 1.34 0 0.68 0 0 Z " fill="#DFE0E0" transform="translate(805,273)"/>
<path d="M0 0 C0.70125 -0.02578125 1.4025 -0.0515625 2.125 -0.078125 C2.74375 0.03015625 3.3625 0.1384375 4 0.25 C4.66 1.24 5.32 2.23 6 3.25 C4.5629191 3.30422947 3.12524538 3.34289723 1.6875 3.375 C0.88699219 3.39820313 0.08648438 3.42140625 -0.73828125 3.4453125 C-3 3.25 -3 3.25 -6 1.25 C-3.78704384 0.14352192 -2.45327301 0.05411632 0 0 Z " fill="#E9EAEA" transform="translate(799,245.75)"/>
<path d="M0 0 C1.32 0.66 2.64 1.32 4 2 C2.71937515 3.7074998 1.38232443 5.37373596 0 7 C-0.66 7 -1.32 7 -2 7 C-1.125 1.125 -1.125 1.125 0 0 Z " fill="#DAD9DA" transform="translate(546,824)"/>
<path d="M0 0 C1.60461448 4.01153621 0.45438973 7.07314774 -1 11 C-1.99 11.66 -2.98 12.32 -4 13 C-3.52140759 11.39566191 -3.04210442 9.79153584 -2.5625 8.1875 C-2.29566406 7.29417969 -2.02882813 6.40085937 -1.75390625 5.48046875 C-1.19612127 3.64526945 -0.60655425 1.81966274 0 0 Z " fill="#C7C6C8" transform="translate(494,961)"/>
<path d="M0 0 C1.31223496 3.93670488 0.24296256 6.12488144 -1 10 C-1.99 10 -2.98 10 -4 10 C-3.52449439 8.51965236 -3.04448784 7.04074979 -2.5625 5.5625 C-2.29566406 4.73878906 -2.02882813 3.91507813 -1.75390625 3.06640625 C-1 1 -1 1 0 0 Z " fill="#DFDFDF" transform="translate(517,831)"/>
<path d="M0 0 C-0.5 1.9375 -0.5 1.9375 -2 4 C-4.69658452 4.68790422 -7.2017019 4.81946464 -10 5 C-3.63636364 0 -3.63636364 0 0 0 Z " fill="#3E3F3E" transform="translate(711,801)"/>
<path d="M0 0 C0 1.32 0 2.64 0 4 C-1.98 4 -3.96 4 -6 4 C-6.33 3.34 -6.66 2.68 -7 2 C-4.35261084 0.5393715 -3.10551666 0 0 0 Z " fill="#444444" transform="translate(581,673)"/>
<path d="M0 0 C-4.55426184 2.66590937 -7.73946963 3.31563182 -13 3 C-8.8341563 0.22277086 -4.9360889 -1.89849573 0 0 Z " fill="#555756" transform="translate(663,292)"/>
<path d="M0 0 C0.66 0.33 1.32 0.66 2 1 C0.02 3.31 -1.96 5.62 -4 8 C-4.99 7.67 -5.98 7.34 -7 7 C-4.69 4.69 -2.38 2.38 0 0 Z " fill="#DDDCDD" transform="translate(731,927)"/>
<path d="M0 0 C-3.28463659 2.18975773 -6.20696275 2.99806563 -10 4 C-10.33 3.34 -10.66 2.68 -11 2 C-3.57142857 -1.57142857 -3.57142857 -1.57142857 0 0 Z " fill="#484848" transform="translate(607,664)"/>
<path d="M0 0 C1 2 1 2 0.44140625 3.9453125 C0.15136719 4.66460938 -0.13867188 5.38390625 -0.4375 6.125 C-0.72496094 6.84945312 -1.01242187 7.57390625 -1.30859375 8.3203125 C-1.53675781 8.87460937 -1.76492188 9.42890625 -2 10 C-2.33 10 -2.66 10 -3 10 C-2.88637738 8.5199159 -2.75877092 7.04089926 -2.625 5.5625 C-2.55539062 4.73878906 -2.48578125 3.91507813 -2.4140625 3.06640625 C-2.27742187 2.38449219 -2.14078125 1.70257812 -2 1 C-1.34 0.67 -0.68 0.34 0 0 Z " fill="#545454" transform="translate(530,865)"/>
<path d="M0 0 C1 2 1 2 0.44140625 3.9453125 C0.15136719 4.66460938 -0.13867188 5.38390625 -0.4375 6.125 C-0.72496094 6.84945312 -1.01242187 7.57390625 -1.30859375 8.3203125 C-1.53675781 8.87460937 -1.76492188 9.42890625 -2 10 C-2.33 10 -2.66 10 -3 10 C-2.88637738 8.5199159 -2.75877092 7.04089926 -2.625 5.5625 C-2.55539062 4.73878906 -2.48578125 3.91507813 -2.4140625 3.06640625 C-2.27742187 2.38449219 -2.14078125 1.70257812 -2 1 C-1.34 0.67 -0.68 0.34 0 0 Z " fill="#505050" transform="translate(536,849)"/>
<path d="M0 0 C0.66 0.33 1.32 0.66 2 1 C-1.5 5.875 -1.5 5.875 -6 7 C-4.02 4.69 -2.04 2.38 0 0 Z " fill="#ECEBEC" transform="translate(770,771)"/>
<path d="M0 0 C0 0.66 0 1.32 0 2 C-3 4 -3 4 -5.6875 3.625 C-6.450625 3.41875 -7.21375 3.2125 -8 3 C-5.22569089 1.15046059 -3.35957737 0 0 0 Z " fill="#414141" transform="translate(688,811)"/>
<path d="M0 0 C0.66 0 1.32 0 2 0 C2.625 1.8125 2.625 1.8125 3 4 C2.01 5.485 2.01 5.485 1 7 C0.34 7 -0.32 7 -1 7 C-0.67 4.69 -0.34 2.38 0 0 Z " fill="#404140" transform="translate(884,522)"/>
<path d="M0 0 C2.46800047 1.15173355 4.04783565 2.04783565 6 4 C5.67 4.99 5.34 5.98 5 7 C3.29115995 5.37660195 1.62553283 3.70680947 0 2 C0 1.34 0 0.68 0 0 Z " fill="#444343" transform="translate(839,351)"/>
</svg>
