<svg xmlns="http://www.w3.org/2000/svg" viewBox="0 0 300 300" fill="none">
  <g id="weather-wind" stroke="#2B2B2B" stroke-width="6" stroke-linecap="round" stroke-linejoin="round">
    <path d="M78 126
             H222
             C240 126 254 112 254 94
             C254 77 241 63 224 62
             C217 39 196 24 172 24
             C151 24 132 36 123 54
             C116 49 107 46 98 46
             C79 46 64 61 64 80
             C64 84 65 88 66 92
             C53 97 44 110 44 124
             C44 143 59 158 78 158
             H218"/>

    <path d="M54 196
             H188
             C204 196 216 184 216 170
             C216 158 207 149 195 149
             C184 149 176 156 174 166"/>

    <path d="M82 226
             H222
             C238 226 250 214 250 200
             C250 188 241 179 229 179
             C218 179 210 186 208 196"/>

    <path d="M64 256
             H156
             C169 256 180 247 180 235
             C180 225 172 217 162 217
             C153 217 146 223 144 231"/>
  </g>
</svg>
