<svg xmlns="http://www.w3.org/2000/svg" viewBox="0 0 300 300" fill="none">
  <g id="weather-rain" stroke="#2B2B2B" stroke-width="6" stroke-linecap="round" stroke-linejoin="round">
    <path d="M78 142
             H222
             C240 142 254 128 254 110
             C254 93 241 79 224 78
             C217 55 196 40 172 40
             C151 40 132 52 123 70
             C116 65 107 62 98 62
             C79 62 64 77 64 96
             C64 100 65 104 66 108
             C53 113 44 126 44 140
             C44 159 59 174 78 174
             H218"/>

    <path d="M93 207
             C93 207 78 225 78 238
             C78 250 87 258 98 258
             C109 258 118 250 118 238
             C118 225 103 207 103 207
             C101 204 95 204 93 207Z"/>

    <path d="M145 190
             C145 190 130 208 130 221
             C130 233 139 241 150 241
             C161 241 170 233 170 221
             C170 208 155 190 155 190
             C153 187 147 187 145 190Z"/>

    <path d="M197 207
             C197 207 182 225 182 238
             C182 250 191 258 202 258
             C213 258 222 250 222 238
             C222 225 207 207 207 207
             C205 204 199 204 197 207Z"/>
  </g>
</svg>
