<svg xmlns="http://www.w3.org/2000/svg" width="960" height="960" viewBox="0 0 960 960"><g transform="translate(176.25)scale(1.25)"><title>Layer 1</title><g stroke-width="0"><path fill="#2f2f2e" d="m193.09 345.953 2.469-.003c21.699-.025 43.21.552 64.843 2.378l2.732.229c5.139.44 10.267.952 15.393 1.521l2.281.25c32.706 3.636 68.008 7.68 97.594 23l2.895 1.488c8.504 4.73 15.909 11.082 19.105 20.512.533 3.809.522 7.536.438 11.375l-.034 3.17c-.458 21.564-.458 21.564-4.404 29.455l2.125.113c11.01.763 20.636 3.953 28.25 12.325 4.93 6.255 5.457 12.81 4.625 20.562-1.83 7.64-6.598 12.674-13 17-3.572 1.778-7.158 2.94-11 4l-2.887.867c-5.1 1.372-9.717 2.23-15 1.977-8.956-.676-8.956-.676-16.938 2.6-3.306 3.8-5.649 8.143-8.022 12.563-2.64 4.565-6.548 8.189-10.153 11.993a573 573 0 0 0-3.5 4.063c-12.612 14.324-30.224 30.338-48.5 36.937q1.977 7.008 4 14l.98 3.402.958 3.223.84 2.852c1.072 3.09 2.278 6.035 3.566 9.039 2.844 6.742 5.05 13.626 7.219 20.61 2.28 7.314 4.607 14.523 7.529 21.609 1.4 3.492 2.545 7.048 3.658 10.64l.668 2.074c1.057 3.383 1.582 5.968 1.582 9.551l1.66-.14c15.877-.723 28.724 5.804 40.34 16.14 9.525 11.37 15.204 23.98 14.422 39.035-1.702 15.996-8.548 28.726-20.875 39.012-11.734 8.635-25.052 12.27-39.547 10.953-16.025-3.167-27.286-11.53-36.848-24.508-7.74-11.828-9.023-26.356-6.496-40.047 1.92-6.902 4.986-12.817 8.758-18.886l1.586-2.559 1.336-1.84c1.109-3.606-.269-6.604-1.336-10.16l-2.734-.594c-13.053-2.916-25.852-6.662-38.696-10.38-5.514-1.584-11.042-3.116-16.57-4.65-23.526-6.551-23.526-6.551-35-10.376-6.501-.597-12.32.545-18.562 2.25l-5.27 1.383-2.627.7a361 361 0 0 1-7.115 1.784c-7.84 1.81-7.84 1.81-15.426 4.446-3.683 1.504-7.474 2.135-11.375 2.812a160 160 0 0 0-19.536 4.681c-4.223 1.266-8.27 2.151-12.651 2.675-9.516.966-9.516.966-16.96 6.254-2.455 4.887-3.62 9.996-4.777 15.31-1.008 3.89-2.61 7.443-4.207 11.124-1.83 4.385-3.462 8.828-5.088 13.292l-1.933 5.27a1689 1689 0 0 0-2.962 8.136c-.96 2.66-1.938 5.315-2.917 7.97l-.869 2.443c-2.233 5.994-5 10.135-9.912 14.345-6.354 2.542-13.554 1.58-19.813-.875-4.235-2.695-6.384-5.237-8-10-1.995-11.736 3.34-22.54 7.438-33.25q1.11-2.966 2.215-5.933c1.783-4.773 3.585-9.538 5.394-14.3 1.309-3.456 2.595-6.92 3.879-10.384 2.593-6.988 5.189-13.97 7.996-20.875 2.01-4.997 3.805-10.059 5.601-15.135 3.077-8.64 6.332-17.218 9.54-25.81l5.23-14.03c2.01-5.395 4-10.798 5.957-16.213 1.28-3.53 2.6-7.046 3.918-10.562.826-2.49 1.374-4.927 1.832-7.508l-3.008-1.8c-17.507-10.622-33.945-23.285-46.992-39.2l-1.996-2.265c-11.966-13.908-20.785-29.945-28.004-46.735l-1.453-3.285C3.356 450.037.272 428.131.089 407.766l-.087-3.287c-.073-9.222 2.082-15.341 8.4-22.15 19.405-16.058 45.63-22.495 69.974-26.502a788 788 0 0 0 6.4-1.084 807 807 0 0 1 26.432-4.108q2.158-.302 4.314-.614c25.797-3.737 51.553-4.065 77.568-4.068"/><path fill="#2e2e2d" d="M414.715 15.578c40.824 26.481 40.824 26.481 45.687 44.75 1.731 18.118-6.118 29.819-16.812 43.809-1.404 2.067-1.404 2.067-.901 4.127 1.19 3.447 3.577 6.138 5.776 9.002 15.978 21.352 27.157 45.036 32.937 71.062l.613 2.434c6.532 26.374 3.828 54.115-.613 80.566l-.437 2.646c-5.073 29.357-17.868 59.436-35.563 83.354l-1.855 2.754c-3.84 5.473-7.605 8.546-14.145 10.246-16.382 2.704-33.549-12.149-46-21-8.958-6.584-17.655-13.446-25.805-21.016-2.199-1.987-4.474-3.797-6.82-5.609-9.81-7.73-18.788-16.65-27.526-25.558-1.745-1.715-3.543-3.3-5.407-4.883-5.237-4.555-10.11-9.456-15.004-14.371l-2.748-2.737c-4.545-4.55-8.935-9.16-13.123-14.041-2.394-2.728-4.97-5.253-7.567-7.785-3.883-3.835-7.618-7.718-11.16-11.875-2.39-2.76-4.865-5.44-7.34-8.125a581 581 0 0 1-12.5-14l-2.707-3.11c-16.69-19.237-32.272-39.626-46.293-60.89l-1.275-1.934c-26.532-40.582-26.532-40.582-25.24-57.867 3.67-15.655 22.181-27.058 34.729-35.108 15.727-9.605 32.848-15.342 50.786-19.09.843-.19 1.686-.377 2.555-.571 21.736-3.82 49.355-4.46 70.445 2.57 3.371.871 3.371.871 7 0 2.566-2.819 4.228-6.08 6-9.437 6.955-12.674 14.55-25.256 29.004-29.907 16.113-3.529 28.041 3.334 41.309 11.594"/><path fill="#f9f9f9" d="m288.965 51.89 2.363.012c28.072.188 56.165 6.084 81.074 19.426l2.137 1.117c10.539 5.526 20.473 11.564 29.863 18.883l1.586 1.235c37.302 29.485 59.415 69.02 65.99 116.027.664 5.857.765 11.66.737 17.55l-.015 3.788c-.243 19.654-3.204 38.452-8.298 57.4l-1.035 3.992c-3.118 11.54-7.952 22.098-13.027 32.883l-1.284 2.74c-2.254 4.732-4.605 9.119-7.654 13.385-1.999-2.57-3.692-5.112-5.207-7.992l-1.255-2.352-1.35-2.53c-20.533-37.823-47.928-71.771-75.75-104.434a1312 1312 0 0 1-4.278-5.067c-7.172-8.493-14.686-16.617-22.332-24.684a497 497 0 0 1-4.98-5.374c-7.976-8.704-16.26-17.087-24.598-25.442l-1.787-1.795a2380 2380 0 0 0-5.072-5.072l-1.558-1.564c-2.664-2.682-2.664-2.682-5.833-4.694v-2l-1.715-.715c-2.808-1.579-4.629-3.512-6.847-5.847-4.36-4.457-8.93-8.409-13.797-12.297-2.392-1.939-4.678-3.943-6.953-6.016-5.977-5.362-12.329-10.23-18.688-15.125l-1.936-1.502c-11.365-8.804-23.072-17.242-36.064-23.498v-2c12.677-9.799 26.75-16.863 41.938-21.812l2.558-.843c14.201-4.391 28.278-5.91 43.067-5.782M14.402 424.328l1.668.996c22.386 12.807 46.853 19.668 72.028 24.548 2.365.468 4.721.97 7.078 1.48 13 2.778 26.008 4.598 39.226 5.976l3.733.42c23.144 2.52 46.258 2.876 69.516 2.89q3.523.005 7.048.013c27.125 1.844 27.125 1.844 52.703-3.323a177 177 0 0 1 6.078-.691c15.84-1.672 31.395-3.948 46.985-7.246l2.37-.494c9.551-2.004 18.842-4.437 28.124-7.453 3.091-1.002 6.193-1.916 9.318-2.803 7.99-2.65 15.19-7.129 22.436-11.345a74 74 0 0 1 3.69-1.968c-2.597 29.596-2.597 29.596-8 35-3.032.111-6.043.162-9.075.176q-2.826.035-5.65.072c-2.978.035-5.956.065-8.934.078-2.868.016-5.735.056-8.604.1l-2.68-.006c-5.509.109-8.671.936-13.058 4.58-3.78 3.948-5.363 8.068-5.687 13.5.274 5.807 2.442 9.596 6.687 13.5 3.618 2.507 6.131 3.39 10.52 3.512l3.095.107 3.198.069 3.256.103q3.965.123 7.931.21c-4.393 9.101-12.154 16.671-19 24l-2.3 2.464c-26.73 27.691-63.238 44.695-100.7 51.535l-2.494.496c-49.536 9.77-104.351-1.753-146.256-29.558-7.509-5.166-14.576-10.733-21.25-16.938l-1.995-1.847c-27.658-25.885-46.188-59.324-51.005-97.153-.052-1.666-.085-3.335 0-5"/><path fill="#f5f5f5" d="M193.166 359.067c3.585.012 7.169.005 10.753-.007 26.987-.073 53.738 1.388 80.546 4.643l2.758.327c12.773 1.518 25.465 3.232 38.064 5.862 2.081.43 4.166.825 6.256 1.21 18.088 3.405 43.174 8.698 54.96 24.378 1.777 3.653 1.785 6.933.9 10.848-6.26 12.742-23.104 18.4-35.666 22.919-9.77 3.168-19.877 5.304-29.908 7.468-2.36.376-2.36.376-3.427 1.613-2.526.485-5.04.913-7.582 1.305l-2.393.375q-3.917.606-7.837 1.195l-2.689.41c-14.812 2.236-29.609 3.797-44.549 4.865l-2.2.16c-1.95.138-3.902.267-5.853.396-2.834.115-2.834.115-4.897 1.294a87 87 0 0 1-4.948.145l-3.151.02-3.448.003-3.581.013q-5.811.013-11.622.007l-3.993-.002c-35.07-.034-70.693-.526-105.165-7.757-2.663-.546-5.336-.934-8.03-1.304-26.872-4.108-63.37-10.482-82.062-32.125-1.258-3.774-1.714-7.095-1-11 5.472-10.921 20.903-15.59 31.692-19.305 21.611-7.086 44.155-10.973 66.75-13.203 3.821-.383 7.614-.917 11.418-1.453 7.631-1.038 15.26-1.679 22.949-2.148l2.05-.127c14.967-.909 29.915-1.073 44.905-1.025"/><path fill="#f8f8f8" d="M192.09 92.64c20.91.632 48.299 30.107 62.949 43.575 2.594 2.32 5.275 4.497 7.988 6.676 4 3.234 7.691 6.59 11.23 10.32 1.805 1.781 3.64 3.407 5.567 5.05 5.557 4.827 10.714 10.053 15.906 15.264q2.598 2.605 5.205 5.2c5.2 5.196 10.309 10.403 15.082 16 1.855 2.147 3.85 4.128 5.885 6.103 3.35 3.31 6.5 6.708 9.563 10.281 1.923 2.203 3.898 4.352 5.887 6.496a301 301 0 0 1 13.863 16.067c2.198 2.669 4.48 5.229 6.812 7.781a169 169 0 0 1 9.45 11.356 535 535 0 0 0 5.722 7.323c18.592 23.504 36.147 47.845 50.828 74.009l1.255 2.227c3.45 6.266 5.683 11.644 5.12 18.96-2 2-2 2-5.66 2.36-4.546-.127-7.944-1.78-11.777-4.11l-2.066-1.211c-21.905-13.103-41.705-29.866-60.497-47.039l-3.039-2.758c-4.846-4.408-9.632-8.846-14.216-13.53-1.735-1.702-3.532-3.28-5.382-4.856-4.675-4.07-9.055-8.4-13.425-12.793l-2.315-2.303c-3.494-3.5-6.903-7.024-10.127-10.776-3.884-4.512-8.118-8.634-12.37-12.796-5.82-5.75-11.286-11.501-16.325-17.95-1.665-2.069-3.39-3.897-5.3-5.738-3.647-3.53-6.754-7.415-9.93-11.367-2.322-2.862-4.741-5.628-7.178-8.392-6.985-7.932-13.469-16.163-19.802-24.622a907 907 0 0 0-4.724-6.224c-13.842-18.169-26.149-37.194-35.867-57.895l-1.387-2.95c-2.29-5.246-3.227-9.32-2.613-15.05 2-2 2-2 5.688-2.687"/><path fill="#f4f4f4" d="m353.402 677.328 2.254.996c9.852 4.818 15.578 13.095 19.746 23.004 3.06 9.18 2.037 21.587-2.195 30.184-5.74 8.958-12.637 16.091-22.805 19.816l-3.25 1.313c-11.304 2.072-21.574 1.232-31.37-4.973-8.68-6.433-15.585-14.474-17.38-25.34-1.27-11.407-.84-21.387 6-31l1.91-2.703c11.36-14.184 30.432-19.444 47.09-11.297"/><path fill="#f8f8f8" d="M128.402 578.328c6.116 1.479 12.155 3.048 18.156 4.938 9.264 2.661 18.667 3.688 28.22 4.812l18.624 2.25v39c-16 4-16 4-23.125 5.75-7.147 1.768-14.253 3.688-21.363 5.6-32.068 8.627-32.068 8.627-47.512 11.65.505-5.051 1.703-8.517 4-13 2.594-6.262 4.908-12.616 7-19.062 1.663-5.102 3.669-9.99 5.774-14.922 1.636-4.024 2.98-8.12 4.32-12.25 1.662-5.071 3.467-10.012 5.906-14.766"/><path fill="#2f2f2f" d="M417.625 135.93c6.356 5.672 11.37 15.327 12.05 23.804.435 12.327-2.416 20.991-10.39 30.657-2.958 3.044-6.101 5.054-9.883 6.937l-3.437 1.813c-8.004 2.757-19.103 2.52-27.063-.375-10.877-5.31-17.416-12.894-21.375-24.313-2.957-11.298-.967-20.264 4.625-30.25 14.803-18.915 35.942-22.347 55.473-8.273"/><path fill="#f8f8f8" d="m267.402 580.328 24 72c-3.36 1.132-5.366.855-8.726-.187l-2.84-.859-3.059-.954q-3.245-.982-6.492-1.957l-3.413-1.026c-6.758-1.98-13.573-3.753-20.386-5.53-6.175-1.632-12.222-3.485-18.267-5.543-3.95-1.323-7.938-2.487-11.942-3.631-7.614-2.182-7.614-2.182-9.875-3.313v-39l8.875-.687c8.703-.77 17.236-2.098 25.813-3.75l3.251-.622c5.763-1.148 11.336-2.526 16.916-4.375 2.145-.566 2.145-.566 6.145-.566"/><path fill="#f2f2f2" d="m104.402 569.328 12 4c-1.918 7.676-4.398 14.926-7.375 22.25-2.661 6.657-5.247 13.298-7.437 20.125-1.461 4.527-3.073 8.813-5.086 13.117-2.375 5.406-4.327 10.991-6.37 16.529q-1.094 2.954-2.204 5.901c-1.658 4.413-3.28 8.84-4.903 13.266-2.019 5.497-4.061 10.98-6.187 16.437-1.921 4.945-3.696 9.928-5.438 14.938a256 256 0 0 1-6.71 17.246c-1.923 4.758-3.553 9.617-5.147 14.494-2.283 6.749-2.283 6.749-5.143 8.697-5.157.645-5.157.645-7.686-1.289-1.314-1.71-1.314-1.71-1.343-5.459 1.064-7.068 3.918-13.66 6.49-20.287q.83-2.17 1.656-4.343c1.446-3.793 2.905-7.581 4.366-11.369 1.48-3.84 2.947-7.684 4.416-11.528q3.23-8.454 6.482-16.9c1.896-4.934 3.775-9.872 5.62-14.825q.748-2 1.5-4l.75-2 2.25-6 .747-1.995q.76-2.025 1.524-4.049a559 559 0 0 0 4.603-12.706 228 228 0 0 1 5.25-13.5c1.885-4.43 3.384-8.84 4.703-13.465 1.031-3.506 2.345-6.882 3.672-10.285l2.688-7q1.154-3 2.312-6"/><path fill="#2f2e2e" d="M351.398 691.7c5.656 4.596 10.604 9.774 11.375 17.202.283 9.41-.409 15.983-6.98 23.192-5.74 5.423-11.57 7.367-19.39 7.672-6.672-.21-11.08-1.67-15.938-6.274-6.633-7.213-8.598-12.966-8.34-22.754.612-7.526 2.974-11.823 8.508-16.937 8.57-7.133 21.277-8.235 30.765-2.102"/><path fill="#f3f3f3" d="M393.126 17.793c13.146 6.514 24.803 15.19 36.4 24.095q1.785 1.37 3.58 2.728c7.27 5.507 14.178 11.253 15.605 20.77.715 13.209-8.416 23.271-16.309 32.942-3.775-1.762-6.307-3.769-9-7 .252-3.967 2.799-6.89 5-10.062 3.876-5.6 5.477-9.024 5-15.938-7.12-13.998-30.354-29.118-45-34-2.081-.27-2.081-.27-4.312-.312l-2.239-.114c-4.33.753-7.255 2.904-9.957 6.349a167 167 0 0 0-4.367 6.827l-1.508 2.402a734 734 0 0 0-3.617 5.848l-12-3c2.022-5.055 4.476-9.323 7.313-13.937l1.435-2.381c8.04-13.143 18.32-22.528 33.976-15.217"/><path fill="#f8f8f8" d="M405.726 143.133c4.706 3.357 8.967 7.577 10.676 13.195.882 7.792 1.577 15.966-3.515 22.461l-1.485 1.54c-.47.486-.938.974-1.422 1.476-6.313 5.804-12.325 7.122-20.648 6.863-7.435-.862-11.918-4.624-16.52-10.348-4.266-6.027-4.016-12.859-3.41-19.992 1.971-6.68 5.988-11.848 11.625-15.875 7.65-3.623 17.382-3.653 24.7.68"/><path fill="#2f2f2f" d="m235.59 373.016 2.076-.01c4.006.042 7.13.565 10.736 2.322-1 3-1 3-3.303 4.192l-3.076 1.156-3.438 1.316-3.745 1.399q-3.919 1.496-7.832 3.004l-1.992.762c-5.505 2.11-10.939 4.365-16.364 6.671-14.35 6.056-28.853 11.737-43.349 17.435l-9.305 3.658a1010 1010 0 0 0-17.572 7.114l-3.872 1.59q-3.39 1.395-6.756 2.845c-6.586 2.689-11.42 3.287-18.396 1.858l-2.945-.535-6.055-1.465c1-3 1-3 3.508-4.28l3.402-1.294 1.883-.728a620 620 0 0 1 4.093-1.563c2.993-1.13 5.975-2.287 8.959-3.44q2.39-.925 4.784-1.845c8.083-3.11 16.124-6.323 24.162-9.55q3.71-1.489 7.422-2.975l12.99-5.204q12.146-4.867 24.291-9.73l8.835-3.54 5.452-2.183 2.473-.992q3.37-1.347 6.746-2.676l2.205-.881c4.907-1.915 8.789-2.556 13.983-2.431"/><path fill="#313131" d="M300.402 380.328v3c-20.178 9.243-40.78 17.383-61.4 25.575a4306 4306 0 0 0-28.85 11.613l-2.227.903-4.276 1.735q-2.051.833-4.102 1.663a707 707 0 0 0-10.772 4.473l-2.32.978a534 534 0 0 0-4.383 1.874c-5.478 2.306-9.837 2.981-15.67 2.186l-2.824-.25a244 244 0 0 1-7.176-.75v-4c30.646-12.754 61.414-25.201 92.244-37.5 4.061-1.62 8.12-3.248 12.178-4.875l10.25-4.109q2.764-1.109 5.527-2.215l3.183-1.276c7.253-2.839 13.377-1.81 20.618.975"/><path fill="#303030" d="m343.527 388.39 1.875.938v4c-22.504 9.158-45.036 18.241-67.625 27.188l-3.046 1.208a2589 2589 0 0 1-14.24 5.603 378 378 0 0 0-9.545 3.87c-8.624 3.566-16.137 4.934-25.544 4.506l-3.539-.082a422 422 0 0 1-8.46-.293v-2c13.938-5.73 27.904-11.38 41.937-16.875 20.87-8.175 41.635-16.615 62.41-25.028l2.835-1.148 2.464-.999 2.353-.95 2.645-1.119c4.952-1.853 10.602-.477 15.48 1.182M178.09 371.89l3.642.096c2.893.081 5.78.195 8.67.342-2.089 2.301-3.842 3.556-6.732 4.68l-2.27.894-2.467.946-2.591 1.015c-2.81 1.1-5.625 2.189-8.44 3.278q-2.934 1.145-5.867 2.293a8398 8398 0 0 1-8.953 3.5 2651 2651 0 0 0-24.972 9.907 5054 5054 0 0 1-44.125 17.473q-2.638 1.036-5.247 2.143c-2.862 1.067-4.874.94-7.898.621l-2.817-.265c-2.553-.472-4.382-1.2-6.62-2.485v-4c12.37-5.511 25.003-10.371 37.618-15.29q5.992-2.338 11.979-4.687 5.394-2.115 10.79-4.226 2.627-1.028 5.254-2.059a1979 1979 0 0 1 12.455-4.84 478 478 0 0 0 9.859-3.924c9.94-3.992 17.91-5.974 28.732-5.411"/><path fill="#f3f3f3" d="M393.402 451.328c7.761.609 17.867 1.614 23.328 7.516 2.757 4.096 3.088 6.492 2.672 11.484-2.692 5.721-6.284 7.907-12 10-14.678 4.634-29.736 5.374-45.002 5.37-2.72.005-5.44.042-8.16.08q-2.612.008-5.225.011l-2.446.044c-3.585-.03-5.75-.21-8.713-2.307-1.454-2.198-1.454-2.198-1.329-5.823.875-3.375.875-3.375 2.875-5.375 2.13-.258 2.13-.258 4.798-.271l3.025-.031 3.283-.006 6.857-.077q5.415-.042 10.83-.071c3.479-.022 6.958-.061 10.438-.102h3.252c5.898-.078 10.365-.448 15.517-3.442 1.052-2.577 1.052-2.577 1-5l-6-4z"/><path fill="#f2f2f3" d="M290.402 571.328c4.58 11.294 8.278 22.84 12 34.438 6.559 20.615 6.559 20.615 14.125 40.875 4.875 12.029 4.875 12.029 4.875 17.687q-2.434 1.256-4.875 2.5l-2.742 1.406c-2.383 1.094-2.383 1.094-4.383 1.094-1.491-4.318-2.909-8.641-4.172-13.031l-.632-2.194q-.616-2.151-1.218-4.306c-1.083-3.778-2.322-7.403-3.825-11.035-3.069-7.497-5.368-15.264-7.798-22.984-2.268-7.185-4.583-14.296-7.466-21.264-1.361-3.347-2.51-6.755-3.639-10.186l-.668-1.98c-1.582-4.766-1.582-4.766-1.582-7.02a562 562 0 0 1 4.313-2l2.425-1.125c2.262-.875 2.262-.875 5.262-.875"/><path fill="#f4f4f4" d="M384.719 42.785c3.627.734 6.302 2.49 9.308 4.543l1.858 1.234c5.623 3.763 11.1 7.715 16.517 11.766l2.68 1.879 2.508 1.809 2.23 1.574c1.582 1.738 1.582 1.738 2.04 4.144-.579 3.279-1.833 4.865-3.958 7.407l-1.969 2.394-1.53 1.793c-3.062-.608-5.121-1.571-7.661-3.371l-2.13-1.477-2.272-1.59c-9.251-6.338-18.923-11.543-28.938-16.562 1.378-3.767 3.084-6.977 5.313-10.312l1.738-2.676c1.95-2.012 1.95-2.012 4.266-2.555"/><path fill="#303030" d="M127.402 375.328c-2.692 3.6-6.353 4.008-10.5 4.938-9.662 2.369-19.037 5.459-28.437 8.687l-2.271.778c-8.076 2.778-16.097 5.658-24.03 8.824l-1.95.777a630 630 0 0 0-9.019 3.694c-10.104 4.142-10.104 4.142-15.793 3.302-2-2-2-2-2.437-4.375.437-2.625.437-2.625 2.562-4.613 11.264-7.882 26.866-11.064 39.875-15.012l2.057-.629c3.115-.926 6.077-1.623 9.318-1.87 3.014-.29 5.869-.734 8.813-1.438 10.577-2.447 20.97-3.387 31.812-3.063"/><path fill="#323232" d="m365.402 400.328 2 2c-.16 2.955-.458 4.48-2.617 6.555-22.055 12.897-52.916 21.308-78.383 20.445 1-2 1-2 2.752-2.727l2.315-.683 2.621-.796 2.875-.856c14.873-4.592 29.4-10.002 43.78-15.957l1.861-.769q4.497-1.858 8.977-3.758l3.268-1.364 2.886-1.223c2.77-.9 4.775-1.191 7.665-.867"/><path fill="#f4f4f4" d="M338.965 700.797c4.468.974 7.905 2.666 10.875 6.281 1.3 5.2 1.278 8.846-1.125 13.563-2.899 3.368-4.951 5.294-9.422 6.039-4.156.265-7.008.035-10.328-2.602-3.795-4.072-5.243-6.805-5.059-12.578 1.761-7.71 7.49-11.35 15.059-10.703"/><path fill="#333332" d="M146.402 446.328q3.657-.04 7.313-.062l1.974-.026c5.523-.025 11.014.247 16.526.557 10.288.575 20.574.856 30.875 1.094l5.377.13q6.467.157 12.935.307v1q-9.173.217-18.347.427l-6.22.146c-5.909.14-11.818.269-17.728.377q-2.623.048-5.245.104a798 798 0 0 1-6.741.102c-1.238.02-2.476.038-3.752.057-2.967-.213-2.967-.213-5.967-2.213-2.974-.242-2.974-.242-6.187-.125l-3.293.055-2.52.07z"/><path fill="#3b3b3b" d="m315.402 420.328-1.937.813c-2.394 1.074-2.394 1.074-3.063 4.187l3 1q-4.216.763-8.437 1.5l-2.373.434c-5.474.946-10.635 1.2-16.19 1.066 1-2 1-2 3.101-2.854l2.739-.837 2.97-.924 3.128-.947q3.045-.938 6.09-1.88l2.741-.834c5.112-1.66 5.112-1.66 8.231-.724"/><path fill="#404040" d="M127.402 375.328c-3.115 3.76-6.547 4.095-11.191 4.86-4.07.203-6.318-.843-9.809-2.86v-1c7.018-1.1 13.906-1.097 21-1"/><path fill="#525252" d="M146.402 446.328c12.04-.139 23.983.261 36 1v1l-16 1v1c-5.625.25-5.625.25-9-2-2.974-.242-2.974-.242-6.187-.125l-3.293.055-2.52.07z"/><path fill="#444344" d="m220.402 430.328 2 1-1 3h18v1h-26v-2a136 136 0 0 1 7-3"/><path fill="#424242" d="m138.402 644.328-5.312 1.938-2.989 1.09c-3.686 1.328-6.477 2.091-10.386 2.035l-2.45-.028-1.863-.035c3.636-2.05 7.496-3.11 11.5-4.187l2.012-.577c3.463-.936 6.084-1.6 9.488-.236"/><path fill="#515151" d="M471.402 241.328h1c1.612 8.058 1.644 13.712-2 21-.867-2.899-1.046-5.114-.66-8.11l.283-2.284.315-2.356.302-2.402c.247-1.95.503-3.9.76-5.848"/><path fill="#363737" d="m325.402 690.328 2 1-2.312 2.25c-2.641 2.55-2.641 2.55-4.25 5-1.71 2.08-2.816 2.389-5.438 2.75 1.448-3.444 3.277-5.361 6.125-7.75.725-.613 1.45-1.227 2.195-1.86z"/><path fill="#272626" d="M314.402 419.328h2l-1 2zm2 3 3 2-9 1v-2l-2-1c3.344-1.114 4.667-.917 8 0"/><path fill="#4e4d4d" d="M114.402 375.328h13c-3 3-3 3-6.187 3.188l-2.813-.188v-2z"/><path fill="#474747" d="m276.402 605.328.313 1.938.687 2.062 3 1c.625 2.813.625 2.813 1 6l-2 3c-3.444-9.41-3.444-9.41-3-14"/><path fill="#454545" d="M236.402 426.328c-3.041 2.028-5.481 3.067-9 4-2.191-.45-2.191-.45-4-1 1.41-.702 2.828-1.386 4.25-2.062l2.39-1.16c2.62-.864 3.809-.708 6.36.222"/><path fill="#3f3f3f" d="M349.402 717.328h1c.363 3.27.286 4.609-1.687 7.313-2.704 1.973-4.043 2.05-7.313 1.687l2.313-1.687c2.651-2.282 4.007-4.288 5.687-7.313"/><path fill="#dfe0e0" d="m387.402 27.328 7 3-1 2-11-2v-1h5z"/><path fill="#e9eaea" d="M381.402.078 383.527 0l1.875.328 2 3q-2.156.079-4.312.125l-2.426.07c-2.262-.195-2.262-.195-5.262-2.195 2.213-1.106 3.547-1.196 6-1.25"/><path fill="#dad9da" d="m128.402 578.328 4 2a105 105 0 0 1-4 5h-2c.875-5.875.875-5.875 2-7"/><path fill="#c7c6c8" d="M76.402 715.328c1.605 4.012.455 7.073-1 11l-3 2 1.438-4.812.808-2.707a217 217 0 0 1 1.754-5.48"/><path fill="#dfdfdf" d="M99.402 585.328c1.312 3.937.243 6.125-1 10h-3q.715-2.22 1.438-4.437l.808-2.496c.754-2.067.754-2.067 1.754-3.067"/><path fill="#3e3f3e" d="M293.402 555.328c-.5 1.938-.5 1.938-2 4-2.696.688-5.202.82-8 1 6.364-5 6.364-5 10-5"/><path fill="#444" d="M163.402 427.328v4h-6l-1-2c2.648-1.46 3.895-2 7-2"/><path fill="#555756" d="M245.402 46.328c-4.554 2.666-7.74 3.316-13 3 4.166-2.777 8.064-4.898 13-3"/><path fill="#dddcdd" d="m313.402 681.328 2 1-6 7-3-1z"/><path fill="#484848" d="M189.402 418.328c-3.285 2.19-6.207 2.998-10 4l-1-2c7.429-3.571 7.429-3.571 11-2"/><path fill="#545454" d="M112.402 619.328c1 2 1 2 .442 3.945l-.88 2.18-.87 2.195-.692 1.68h-1q.172-2.22.375-4.437l.211-2.496.414-2.067z"/><path fill="#505050" d="M118.402 603.328c1 2 1 2 .442 3.945l-.88 2.18-.87 2.195-.692 1.68h-1q.172-2.22.375-4.437l.211-2.496.414-2.067z"/><path fill="#ecebec" d="m352.402 525.328 2 1c-3.5 4.875-3.5 4.875-8 6z"/><path fill="#414141" d="M270.402 565.328v2c-3 2-3 2-5.687 1.625l-2.313-.625c2.774-1.85 4.64-3 8-3"/><path fill="#404140" d="M466.402 276.328h2c.625 1.813.625 1.813 1 4l-2 3h-2z"/><path fill="#444343" d="M421.402 105.328c2.468 1.152 4.048 2.048 6 4l-1 3a141 141 0 0 1-5-5z"/></g></g></svg>