<svg xmlns="http://www.w3.org/2000/svg" viewBox="0 0 1254 1254"><path fill="#414141" d="M572 587c2.75 1.625 2.75 1.625 4 4 0 3.276-.238 5.15-2.453 7.621-3.93 2.128-7.888 2.098-12.297 2.379q-3 .236-6 .48l-3.133.252c-22.983 1.976-46.235 5.462-68.205 12.647a325 325 0 0 1-5.892 1.836c-10.36 3.21-20.06 7.244-28.02 14.785-1.583 3.166-1.644 6.575-1 10 2.619 4.821 5.767 7.677 10.375 10.5l1.862 1.163c6.296 3.83 12.87 6.739 19.763 9.337l3.336 1.266c48.688 17.287 102.72 19.844 153.852 19.984l3.68.017c14.665.049 29.09-.442 43.673-2.018 3.538-.358 7.083-.62 10.63-.886C731.954 677.67 781.963 671.813 810 647c2.78-3.428 3.696-6.496 3.445-10.96-1.194-5.468-5.028-8.126-9.55-11.044-18.069-10.52-39.029-14.805-59.415-18.312l-3.855-.664a736 736 0 0 0-7.523-1.233l-3.457-.576-3.083-.49c-2.778-.782-3.904-1.38-5.562-3.721-.312-3.562-.312-3.562 0-7 2-2 2-2 5.938-2.312 30.157.73 72.753 9.53 94.363 32.074 4.859 6.4 5.178 11.628 5.074 19.426l-.018 3.185c-.158 9.727-1.47 19.1-3.357 28.627l2.93.445c10.187 1.693 18.797 4.111 25.57 12.492 3.826 5.696 5.716 12.207 4.5 19.063-3.905 10.174-9.108 15.786-18.957 20.36-7.91 3.378-16.719 5.581-25.328 5.831-7.069.07-7.069.07-13.235 3.083-2.941 3.338-5.176 7.109-7.41 10.942C778.403 767.32 752.393 790.723 729 799l.687 1.753c7.563 19.377 7.563 19.377 9.684 27.942.651 2.386 1.492 4.585 2.442 6.867 2.2 5.291 3.975 10.69 5.76 16.13 1.936 5.883 3.978 11.723 6.052 17.558A310 310 0 0 1 761 893l2.605.043c16.287.657 29.07 6.801 40.32 18.465 3.431 4.121 5.885 8.614 8.075 13.492l.816 1.778c2.27 5.373 2.656 10.178 2.559 15.972l-.033 2.67c-.348 14.301-4.709 25.881-14.592 36.455-4.75 4.452-9.862 7.412-15.75 10.125l-2.477 1.254c-10.226 4.543-23.394 4.385-34.023 1.183-13.639-5.417-24.478-14.705-30.727-28.058-4.754-11.51-6.282-26.453-2.21-38.442 2.102-4.802 4.957-9.137 7.949-13.43 2.216-3.733 2.67-6.17 2.085-10.468-1.793-3.412-2.193-3.608-5.65-4.802q-2.652-.748-5.326-1.42l-2.882-.792a846 846 0 0 0-9.302-2.462 2828 2828 0 0 1-6.366-1.727q-6.24-1.695-12.488-3.352a1407 1407 0 0 1-19.77-5.422l-2.886-.796c-4.475-1.246-8.91-2.563-13.322-4.016l-2.618-.86a282 282 0 0 1-4.718-1.614c-10.17-3.414-18.667-1.227-28.832 1.474l-7.542 1.95-3.63.95a778 778 0 0 1-11.64 2.913c-7.168 1.786-14.283 3.755-21.404 5.722a417 417 0 0 1-17.284 4.34l-4.082.984a133 133 0 0 1-7.617 1.532c-3.53.743-6.167 1.46-9.238 3.359-2.296 3.772-3.33 7.64-4.41 11.9-1.07 3.808-2.611 7.435-4.09 11.1-2.023 5.14-3.987 10.287-5.812 15.5A1386 1386 0 0 1 507 959.563l-1.259 3.464C503.567 968.79 501.879 973.14 497 977l-2.125 1.813c-5.072 2.095-10.717 2.177-15.969.53-4.624-2.352-7.893-5.624-9.906-10.343-1.762-11.124 2.172-20.595 6.063-30.75q.943-2.535 1.882-5.07a2088 2088 0 0 1 3.984-10.655c2.115-5.624 4.18-11.265 6.235-16.912l1.025-2.816 2.013-5.53q2.35-6.448 4.716-12.888l.813-2.218A1941 1941 0 0 1 501 868l1.36-3.648c2.42-6.485 4.868-12.953 7.408-19.392 2.458-6.24 4.809-12.423 6.63-18.886 1.309-4.51 3.12-8.845 4.832-13.215 2.17-5.574 4.287-11.06 5.77-16.859l-2.16-.785C503.852 786.237 484.39 765.94 471 748l-2.187-2.93c-9.83-13.687-17.399-28.193-23.078-44.043a282 282 0 0 0-2.301-6.058c-2.547-6.788-3.93-13.893-5.434-20.969l-.47-2.15c-2.018-9.443-2.867-18.757-3.03-28.413l-.093-3.027c-.003-8.68 2.906-14.484 8.53-20.972C461.863 602.106 491.71 597.499 516 593l2.718-.507c10.307-1.877 20.635-3.009 31.076-3.847l2.67-.216 2.364-.18c13.922-1.6 13.922-1.6 17.172-1.25"/><path fill="#403f3f" d="M827.813 260q2.623 1.449 5.187 3l3.176 1.691C850.977 272.721 864.469 282.79 877 294l2.18 1.89c6.266 5.756 10.354 13.476 11.058 21.993.374 16.337-8.25 27.822-18.238 40.117 1.614 3.682 3.92 6.507 6.438 9.625 21.959 28.019 36.28 63.57 36.835 99.414.02 1.126.02 1.126.038 2.275.364 27.142-2.574 52.813-11.311 78.686l-.854 2.553c-6.096 17.865-14.418 34.937-25.021 50.572l-1.296 1.917c-3.4 4.804-7.102 9.049-12.829 10.958-9.664.89-16.624-.181-25-5l-3.348-1.844C818.866 597.665 803.755 585.338 789 573l-1.79-1.49c-8.28-6.912-16.206-14.155-24.03-21.576-3.23-3.061-6.514-6.055-9.809-9.043-6.32-5.762-12.392-11.76-18.427-17.817a2266 2266 0 0 0-5.317-5.31c-5.239-5.237-10.39-10.479-15.197-16.12-2.136-2.456-4.464-4.697-6.805-6.957-4.537-4.443-8.558-9.17-12.512-14.136-1.935-2.336-3.936-4.443-6.113-6.551-3.844-3.738-7.17-7.779-10.523-11.957-2.721-3.343-5.53-6.599-8.352-9.856C647.332 425.73 625.757 396.258 612 364l-1.09-2.434c-2.8-7.034-3.509-15.689-1.137-22.925 3.368-5.972 9.012-10.34 14.227-14.641l2.977-2.477c15.41-12.503 33.24-20.93 52.273-26.336l2.072-.59c12.128-3.246 24.193-3.967 36.678-3.91l2.318.003c13.888.034 27.492.892 40.983 4.412 3.712 1.055 3.712 1.055 7.699.898 1.881-2.153 1.881-2.153 3.496-5.04l1.943-3.198 1.999-3.387c10.391-17.35 10.391-17.35 17.062-21.625.732-.48 1.464-.96 2.219-1.453 9.011-5.123 22.57-5.525 32.093-1.297"/><path fill="#f9f9f9" d="m711.012 303.691 2.297-.046c19.406-.316 36.889 1.057 55.691 6.355l2.52.678c9.27 2.513 17.882 6.058 26.48 10.322q1.9.906 3.8 1.809c42.196 20.258 76.92 54.746 92.68 99.344 7.07 21.463 9.446 43.34 8.52 65.847l-.133 3.836c-.183 3.408-.492 6.772-.867 10.164l-.213 2.106C898.781 532.55 888.247 561.811 873 586c-3.347-2.767-4.912-6.51-6.812-10.312-8.412-16.3-18.629-31.503-29.867-45.974-1.96-2.542-3.854-5.13-5.759-7.714-5.167-6.897-10.642-13.54-16.1-20.207a640 640 0 0 1-5.587-6.98c-4.355-5.458-8.872-10.777-13.404-16.088a2477 2477 0 0 1-4.455-5.245c-5.64-6.636-11.38-13.158-17.301-19.546a724 724 0 0 1-5.461-5.961c-4.557-5.028-9.176-9.954-14.004-14.723a186 186 0 0 1-10.512-11.285 145 145 0 0 0-14.488-14.215c-3.777-3.233-7.257-6.717-10.75-10.25-4.067-4.108-8.155-8.102-12.566-11.844-2.237-1.916-4.392-3.911-6.559-5.906-5.119-4.624-10.502-8.846-15.95-13.07-2.946-2.29-5.816-4.657-8.675-7.055C662.282 349.409 649.256 340.516 635 333v-2c16.601-14.952 39.312-22.716 61-26l3.223-.515c3.938-.506 7.825-.715 11.789-.794M449 660l2.027 1.285c23.484 14.342 51.706 21.899 78.67 26.175a443 443 0 0 1 9.27 1.64c8.974 1.646 17.953 2.828 27.025 3.78 2.31.244 4.619.5 6.928.757 47.114 5.126 95.526 3.682 142.393-2.95l3.073-.431c20.201-2.878 40.306-6.523 59.614-13.256l2.344-.805c9.695-3.353 18.802-6.948 27.656-12.195 1.327-.678 2.659-1.35 4-2-.423 6.557-1.486 12.84-2.875 19.25l-.49 2.328c-1.984 8.88-1.984 8.88-4.635 12.422-8.661 3.214-18.64 2.334-27.792 2.305-12.03-.166-12.03-.166-22.208 5.695-4.12 4.386-4.461 9.496-4.418 15.324.728 4.664 3.222 8.274 6.418 11.676 3.232 2.004 5.87 2.294 9.64 2.414l3.243.117 3.367.094 3.414.117q4.168.141 8.336.258c-1.7 4.61-4.156 7.902-7.375 11.563l-1.624 1.859c-31.926 36.176-77.23 59.895-125.69 63.401-36.96 1.97-71.735-2.445-105.311-18.823l-1.963-.944c-40.499-19.708-71.249-55.102-86.037-97.431-3.698-10.962-7.262-21.941-7-33.625"/><path fill="#f9f8f8" d="M623 343c24.063 0 53.663 32.39 70.488 47.734a499 499 0 0 0 6.395 5.657c12.57 10.985 24.37 22.758 36.18 34.546l2.072 2.065c13.205 13.165 13.205 13.165 18.372 19.255 2.838 3.313 5.87 6.45 8.868 9.618 8.004 8.508 15.835 17.066 23.184 26.152 2.718 3.31 5.512 6.548 8.316 9.786 5.478 6.347 10.7 12.866 15.822 19.502a1092 1092 0 0 0 3.756 4.822c13.686 17.593 26.638 35.804 38.11 54.926l1.229 2.017c3.772 6.415 6.948 13.332 6.208 20.92l-1 2c-12.246 1.714-24.525-8.209-34-15l-2.21-1.577c-8.544-6.123-16.959-12.229-24.626-19.435-2.202-2.023-4.487-3.846-6.851-5.676-5.2-4.09-9.987-8.576-14.784-13.125-2.974-2.817-5.968-5.578-9.085-8.236-5.318-4.642-10.277-9.64-15.26-14.635l-3.077-3.073a6279 6279 0 0 1-6.407-6.412 5367 5367 0 0 0-8.155-8.153 6093 6093 0 0 1-6.34-6.339l-3.005-3.003c-5.081-5.071-10.07-10.166-14.73-15.629-2.52-2.927-5.195-5.71-7.845-8.52a263 263 0 0 1-13.457-15.554c-2.258-2.743-4.626-5.342-7.043-7.945-5.209-5.674-9.92-11.647-14.614-17.744a471 471 0 0 0-4.757-5.995C619.823 369.727 619.823 369.727 621 345z"/><path fill="#888" d="m478.563 301.688 2.398-.018c13.979.171 24.434 5.281 34.601 14.705L518 319l1.754 1.879C528 329.95 528 329.95 528 336l3.25-.187c14.627.153 28.263 7.527 38.75 17.375 9.46 10.172 16.245 22.807 16.398 36.902-.518 2.486-1.392 3.388-3.398 4.91-3.062.313-3.062.313-6 0-2.529-2.529-2.326-3.74-2.687-7.25-1.936-12.485-8.222-22.574-18.211-30.2-11.064-7.518-23.968-9.585-37.102-8.55-13.065 2.534-24.782 9.325-32.582 20.207-3.675 5.76-6.087 11.768-8.34 18.203C477 390 477 390 475 391c-4.905.44-7.783-.59-12.062-2.937-9.024-4.913-19.888-5.676-29.926-3.38A46 46 0 0 0 426 388l-2.172 1.25c-6.328 4.187-9.5 10.094-12.828 16.75-.799 9.767-.7 17.64 5 26l1.813 2.813c6 6 13.328 9.426 21.862 9.452l3.352.025 3.632-.003 5.865.032q3.14.012 6.28.017c4.365.006 8.73.028 13.097.052 10.05.053 20.101.087 30.152.12 9.222.03 18.444.065 27.665.116q6.513.034 13.024.044 3.072.007 6.143.024 3.748.021 7.495.018l3.326.025 2.896.009C565 445 565 445 568 447c.313 3.5.313 3.5 0 7-2.6 2.6-3.665 2.257-7.285 2.274l-3.398.03-3.746.002-3.933.026c-3.569.022-7.137.03-10.706.035q-3.35.006-6.7.017-11.7.037-23.402.042c-7.251.003-14.503.033-21.754.075q-9.354.051-18.709.05c-3.72.002-7.438.01-11.158.039-4.162.031-8.323.022-12.486.01l-3.685.044c-12.5-.106-22.718-4.585-31.683-13.23-7.725-8.332-10.553-17.46-10.668-28.539l-.087-2.766c-.105-11.291 4.944-19.649 12.65-27.671 5.065-4.94 10.43-9.752 17.75-10.438l-.973-3.86c-2.895-13.118-2.464-27.213 3.973-39.14l1.54-2.914c6.945-11.95 18.84-21.995 32.358-25.621 4.23-.634 8.393-.749 12.664-.777"/><path fill="#f6f6f6" d="M789 914c7.345 5.513 12.937 14.2 14.365 23.336 1.074 12.334-.62 21.871-8.053 31.914-7.81 9.16-17.48 13.664-29.425 15.133-10.389.404-18.955-2.812-26.887-9.469-7.754-7.421-12.49-16.591-13.238-27.332-.25-12.706 2.616-21.085 11.238-30.582 14.122-14.644 36.05-14.385 52-3"/><path fill="#f8f8f8" d="m561 812 2 .566c6.812 1.898 13.647 3.524 20.563 4.996l2.92.631q2.89.622 5.787 1.225c1.673.357 3.342.733 5.003 1.144 9.025 2.113 17.044 1.928 26.727 2.438v40l-11.062 2.5a1079 1079 0 0 0-30.375 7.438l-1.95.506Q573.803 875.215 567 877q-5.742 1.505-11.487 3.004-3.482.909-6.962 1.826l-3.149.822-2.734.719c-2.874.678-5.751 1.173-8.668 1.629q1.008-3.024 2.02-6.047 1.07-3.23 2.117-6.469c1.895-5.81 3.818-11.552 6.238-17.172 2.322-5.397 4.27-10.887 6.188-16.437 2.313-6.699 4.667-13.348 7.437-19.875l.906-2.145q1.038-2.431 2.094-4.855"/><path fill="#414140" d="M845.813 384.75c7.738 5.541 12.04 13.03 14.187 22.25 1.197 9.918-.114 19.534-5.988 27.797-4.358 5.088-8.968 9.255-15.012 12.203l-2.168 1.094c-8.726 2.792-20.255 2.284-28.52-1.531C799.099 441.085 793.36 433.076 790 423c-1.232-11.177-1.031-21.746 6-31 13.904-15.575 32.026-18.154 49.813-7.25"/><path fill="#f7f7f7" d="m696 814 1.766 5.297 1.182 3.545 2.634 7.91c2.284 6.861 4.574 13.72 6.885 20.573q1.649 4.89 3.29 9.784.802 2.382 1.609 4.761 1.136 3.36 2.263 6.724l.684 2.004c1.26 3.78 2.14 7.456 2.687 11.402-8.535-1.472-16.77-3.86-25.062-6.312l-4.176-1.224a5943 5943 0 0 1-17.04-5.027l-4.222-1.25-1.96-.58c-5.598-1.649-11.23-3.15-16.88-4.615-4.578-1.241-9.116-2.629-13.66-3.992v-40l19-1c4.748-.696 9.37-1.437 14.063-2.375l3.388-.633c5.942-1.142 11.683-2.516 17.426-4.428C692 814 692 814 696 814"/><path fill="#f9f8f7" d="M502.813 319.813c5.648 4.06 11.17 8.8 14.187 15.187v3l-2.387.375c-14.674 2.778-27.795 11.407-36.71 23.46A154 154 0 0 0 473 370l-1.312 2.25A288 288 0 0 0 469 377l-1.617-.586c-8.994-3.143-17.903-4.648-27.383-5.414-4.472-10.54-3.925-20.215-.258-30.96 4.3-10.388 12.11-19.148 22.258-24.04l3.438-1.75c12.314-4.328 26.652-1.17 37.375 5.563"/><path fill="#888787" d="M574.277 411.281c1.985.437 3.814 1.02 5.723 1.719l2.832 1c14.374 5.496 23.416 14.606 30.004 28.363 3.952 8.952 4.083 23.177.539 32.325A73 73 0 0 1 611 479l-1.39 2.563c-6.096 10.778-14.137 17.63-23.852 25.18-7.57 6.156-13.689 14.773-15.094 24.609-.163 9.506 2.553 18.503 8.629 25.902 4.323 4.422 9.403 7.626 14.707 10.746 2 2 2 2 2.313 4.438C596 575 596 575 594.938 576.813c-2.267 1.388-4.119 1.91-6.786 1.792-10.015-2.817-19.553-13.394-24.527-22.168-5.56-10.452-6.46-23.047-3.937-34.582.925-2.448 1.982-4.602 3.312-6.855l1.25-2.242c5.193-8.527 12.596-15.13 20.375-21.258 9.499-7.645 15.827-16.472 18.375-28.5.964-9.693-1.997-18.38-8-26-9.393-9.877-19.902-13.08-33.266-13.46-3.41-.673-4.61-1.839-6.734-4.54-.482-2.825-.513-4.244 1.11-6.633 4.629-3.347 12.734-1.757 18.167-1.086"/><path fill="#ee6b39" d="M671.75 518.438c4.137.715 5.244 2.065 7.738 5.312 8.435 12.553 12.527 25.075 10.512 40.25-1.287 5.289-3.575 10.15-6 15 5.544-3.83 8.038-7.443 10.176-13.828C695 563 695 563 697 561c2.938-.375 2.938-.375 6 0 3.678 3.284 4.757 8.435 5.208 13.204.096 2.394.114 4.776.105 7.171l.048 2.422c.007 7.811-1.872 14.676-6.361 21.14l-1.5 2.215C699 609 699 609 696 611c-2.562.25-2.562.25-5 0-2-2-2-2-2.5-4.625.628-4.236 2.395-6.16 5.031-9.43 3.293-4.361 3.723-8.62 3.469-13.945l-1.68 1.277-2.195 1.66-2.18 1.653c-4.59 3.327-9.444 2.988-14.945 2.41-3.166-1.96-3.756-3.172-4.797-6.7-.26-4.215 1.174-6.915 3.172-10.487 4.805-8.963 6.553-18.096 3.625-28.188L677 542l-.996 2.273c-4.712 10.14-10.945 17.116-19.317 24.414-5.642 4.96-8.932 9.768-9.96 17.32-.28 5.845 1.219 9.666 4.082 14.731 1.128 2.143 1.842 3.87 2.191 6.262-1.125 2.25-1.125 2.25-3 4-2.312.688-2.312.688-5 0-6.242-4.89-9.234-12.734-10.348-20.39-.382-9.515 3.672-17.24 9.348-24.61 3.435-3.57 7.17-6.791 10.898-10.049 5.677-5.118 10.568-10.912 11.276-18.912l.072-2.2.1-2.403q.091-2.505.172-5.008l.103-2.4.076-2.196c.534-3.227 2.01-3.772 5.053-4.394"/><path fill="#f3f3f3" d="M538 803c4.038 1.286 7.434 2.692 11 5q-.619 2.158-1.25 4.313l-.703 2.425c-3.187 9.931-7.06 19.648-10.78 29.389-2.084 5.515-3.99 11.018-5.584 16.696-.696 2.22-1.568 4.261-2.558 6.365-2.433 5.228-4.126 10.68-5.879 16.164C521 887 521 887 519.527 890.418c-1.718 4.029-3.065 8.103-4.402 12.27-2.038 6.245-4.299 12.291-6.91 18.324-1.401 3.446-2.571 6.95-3.715 10.488-1.815 5.609-3.904 11.026-6.242 16.438-1.903 4.633-3.469 9.377-5.047 14.128-1.13 2.738-1.861 4.187-4.211 5.934-2.821.423-4.34.387-6.812-1.062-1.854-3.025-1.427-5.43-1.188-8.938.8-2.826 1.916-5.486 3.063-8.187q.97-2.387 1.933-4.778l1.007-2.495c1.657-4.223 3.142-8.503 4.622-12.79l.887-2.558 1.703-4.926c3.078-8.886 6.31-17.713 9.623-26.513 2.994-7.95 5.873-15.938 8.724-23.94 2.157-6.04 4.31-12.062 6.743-17.997 3.173-7.77 6.04-15.567 8.602-23.562 1.467-4.54 3.189-8.872 5.093-13.254a502 502 0 0 0 2.688-7.437c.436-1.237.873-2.473 1.324-3.747z"/><path fill="#424242" d="M775.21 921.254c7.15 4.221 12.15 9.827 14.79 17.746.95 8.162-.469 14.153-5 21-4.503 5.162-9.42 9.608-16.39 10.371-7.712.133-13.742.189-19.61-5.371-5.348-5.188-8.58-9.546-9.3-17.184-.033-8.882.866-14.461 7.112-21.066 7.708-7.692 18.217-9.472 28.399-5.496"/><path fill="#f5f5f5" d="m811.563 269.688 2.94-.114c8.374 1.02 15.582 5.356 22.56 9.863.81.52 1.621 1.038 2.456 1.572C873.472 303.062 873.472 303.062 878 315c1.612 11.252-2.858 18.624-9 27.563l-1.294 1.917c-1.269 1.774-1.269 1.774-3.706 4.52-4.368 0-4.747-.228-7.75-3l-1.86-1.687L853 343c1.334-3.795 3.012-6.526 5.563-9.625 3.2-3.9 4.583-6.673 4.687-11.75l.078-2.273c-.707-5.067-3.513-7.66-7.363-10.735a470 470 0 0 0-5.028-3.742l-2.669-1.983c-18.21-14.053-18.21-14.053-39.83-17.517-5.269 2.49-7.46 6.759-10.438 11.625l-1.55 2.438A398 398 0 0 0 793 305c-2.846-.66-5.523-1.517-8.25-2.562l-2.14-.817L781 301c1.973-5.212 4.695-9.716 7.625-14.437l1.504-2.526c5.233-8.422 11.168-14.095 21.433-14.35"/><path fill="#f8f8f8" d="M833.566 390.879C839.9 394.126 845.408 399.258 848 406c.812 7.14 1.464 14.802-2.437 21.125-4.318 5.366-10.712 10.34-17.727 11.113-7.388.223-13.23-1.01-18.848-6.039-5.954-6.429-8.676-12.605-8.398-21.422 1.043-7.064 5.12-12.285 10.676-16.558 6.833-4.802 14.228-6.105 22.3-3.34"/><path fill="#ee6a39" d="m478.563 301.688 2.398-.018c13.979.171 24.434 5.281 34.601 14.705L518 319l1.754 1.879C528 329.95 528 329.95 528 336l-11 1-2.5-4.062c-6.904-10.276-16.55-16.04-28.5-18.938-11.6-1.144-21.124-.05-30.75 7.02-10.142 8.617-16.285 18.827-17.562 32.27-.106 5.339.31 9.707 2.312 14.71v4l-10 1c-2.72-6.229-3.549-11.413-3.5-18.187l.017-2.803c.203-7.795 1.756-14.106 5.483-21.01l1.54-2.914c6.945-11.95 18.84-21.995 32.358-25.621 4.23-.634 8.393-.749 12.664-.777"/><path fill="#434343" d="M728 617c-.1 1.81-.1 1.81-1 4-2.704 1.545-2.704 1.545-6.39 3.04l-2.045.842c-2.266.93-4.54 1.836-6.815 2.743q-2.42.984-4.84 1.973a2283 2283 0 0 1-13.156 5.3q-4.139 1.656-8.275 3.32-14.13 5.675-28.276 11.31a5806 5806 0 0 0-32.39 13.034l-2.425.982-6.681 2.71-1.988.805c-2.273.925-4.523 1.843-6.719 2.941-2.45.099-4.864.139-7.312.125l-3.989.008c-3.058-.11-5.738-.411-8.699-1.133.151-1.84.151-1.84 1-4 2.38-1.354 2.38-1.354 5.581-2.57l3.613-1.403 3.95-1.484q3.087-1.191 6.17-2.39 2.136-.83 4.273-1.654c6.684-2.582 13.296-5.324 19.904-8.094 3.811-1.592 7.633-3.157 11.454-4.725 3.218-1.322 6.43-2.655 9.635-4.01 26.215-11.07 26.215-11.07 38.63-10.452 3.908.172 6.186-.13 9.199-2.56 2.636-2.482 2.636-2.482 4.091-5.283 5.26-8.328 15.604-5.63 23.5-3.375"/><path fill="#444" d="m762.875 623.313 2.617.238c2.51.45 4.305 1.194 6.508 2.449-.2 1.85-.2 1.85-1 4-2.056 1.29-2.056 1.29-4.8 2.41l-3.104 1.291-3.409 1.361-3.567 1.465A1302 1302 0 0 1 745 641l-3.25 1.293c-4.298 1.703-8.6 3.396-12.91 5.068a1547 1547 0 0 0-23.23 9.264l-9.138 3.704a1744 1744 0 0 0-6.01 2.456 1687 1687 0 0 1-8.528 3.469l-2.542 1.056c-9.36 3.753-18.542 5.022-28.58 4.815l-2.595-.027A832 832 0 0 1 642 672c1-3 1-3 2.863-4.041l2.487-.954 2.845-1.112 3.149-1.19 3.297-1.28q4.488-1.736 8.983-3.454c5.073-1.945 10.133-3.92 15.197-5.888l5.963-2.314c14.115-5.48 28.158-11.132 42.193-16.812q2.85-1.154 5.703-2.304 5.313-2.146 10.625-4.296l3.208-1.297 2.916-1.182 2.543-1.03c3.473-1.448 5.08-1.913 8.903-1.534"/><path fill="#f3f3f3" d="M820 686c7.663.426 16.068 2.068 21.625 7.625 2.38 4.111 2.778 6.54 2.375 11.375-2.216 4.818-5.238 7.454-9.848 9.84-6.641 2.444-13.686 3.495-20.64 4.704-2.497.453-4.972.976-7.453 1.507-9.776 1.957-19.617 2.154-29.559 2.199l-3.531.063-3.375.015-3.041.028C764 723 764 723 762.173 721.698c-1.966-2.845-1.53-5.364-1.173-8.698 1.286-1.693 1.286-1.693 3-3a79 79 0 0 1 8.535-.477c.835-.015 1.67-.03 2.529-.047 2.666-.047 5.332-.075 7.999-.101q4.005-.054 8.009-.123 2.492-.04 4.985-.063c4.104.045 4.104.045 7.943-1.189 3.24-.486 6.487-.897 9.738-1.305 3.365-.717 5.517-1.64 8.262-3.695.75-2.5.75-2.5 0-5-1.9-1.843-1.9-1.843-4-3 .875-7.875.875-7.875 2-9"/><path fill="#444" d="m604.055 607.645 3.883-.043c5.691.033 11.375.167 17.062.398v2l-2.645 1.003c-16.743 6.356-33.452 12.777-50.066 19.466a2390 2390 0 0 1-22 8.743 5399 5399 0 0 1-8.599 3.366c-6.617 2.583-13.22 5.171-19.713 8.055l-2.636 1.165q-2.294 1.026-4.562 2.107c-7.069 3.177-12.685 1.755-19.779-.905.194-1.845.194-1.845 1-4 2.132-1.335 2.132-1.335 4.9-2.484l3.03-1.28L507 644l2.65-1.093a649 649 0 0 1 7.94-3.165l2.954-1.167a7928 7928 0 0 1 9.394-3.7l6.493-2.563q13.72-5.417 27.456-10.792l1.925-.755q4.337-1.701 8.684-3.372c6.277-2.423 6.277-2.423 12.309-5.385 5.706-3.028 10.803-4.301 17.25-4.363"/><path fill="#434343" d="M645.813 620.313 648 622v4c-16.693 7.307-33.557 14.178-50.466 20.966a2482 2482 0 0 0-15.42 6.259 2402 2402 0 0 1-10.365 4.2q-2.475 1.003-4.944 2.022a768 768 0 0 1-6.914 2.8l-2.022.849c-6.549 2.575-13.118 2.635-19.932.904l-2.285-.562L534 663v-3c14.035-5.743 28.082-11.452 42.164-17.078l1.918-.766q6.77-2.705 13.543-5.406 6.827-2.723 13.652-5.45 2.793-1.114 5.587-2.225c5.216-2.08 10.42-4.176 15.576-6.401l2.394-1.026a259 259 0 0 0 4.179-1.846c5.098-2.198 7.882-1.784 12.8.51"/><path fill="#f2f2f3" d="M719 806c1.063 2.117 1.063 2.117 2 4.875l1.027 3.012a204 204 0 0 1 3.164 11.312c1.418 4.911 3.37 9.653 5.195 14.425 3.907 10.265 7.435 20.63 10.864 31.063q1.191 3.615 2.385 7.227.735 2.22 1.463 4.441c.937 2.84 1.895 5.63 3.065 8.383C749 893 749 893 749 897q-2.435 1.005-4.875 2l-2.742 1.125C739 901 739 901 737 901l-.87-2.735a6932 6932 0 0 0-3.238-10.125q-.698-2.183-1.393-4.367-1.006-3.156-2.019-6.308l-.615-1.945c-1.385-4.293-3.08-8.38-4.865-12.52q-.997-2.886-1.902-5.8l-1.01-3.214-2.04-6.562c-1.826-5.813-3.81-11.478-6.126-17.113-1.407-3.528-2.555-7.12-3.672-10.749l-.668-2.1C707.67 814.533 707 812.09 707 809c1.432-.7 2.87-1.384 4.313-2.062l2.425-1.16C716 805 716 805 719 806"/><path fill="#434344" d="m569.125 610.938 3.945.027L576 611l-1 2c-2.12.575-2.12.575-4.941 1.043l-3.171.554-3.45.59c-29.113 5.308-57.105 15.494-84.293 27.024-2.833 1.042-5.154 1.055-8.145.789-2-2-2-2-2.375-4.937.375-3.063.375-3.063 1.934-4.57 3.141-1.921 6.431-3.184 9.878-4.43l2.14-.789c5.397-1.964 10.845-3.71 16.36-5.317 3.185-.95 3.185-.95 6.667-2.405 4.524-1.703 9.035-2.564 13.794-3.341.875-.149 1.75-.298 2.652-.45q2.76-.468 5.521-.923c2.79-.46 5.579-.934 8.366-1.408l5.399-.907 2.485-.42c8.432-1.384 16.757-2.243 25.304-2.165"/><path fill="#f5f5f5" d="M812 296c14.288.318 29.462 16.08 40 25-.603 3.705-2.225 5.86-4.562 8.75l-1.942 2.422L844 334c-3.95-1.788-7.43-4.255-11-6.687-9.003-6.065-18.209-11.606-28-16.313 0-4.626.983-5.975 3.5-9.75l1.969-2.984z"/><path fill="#494949" d="M793 638c.24 2.31.24 2.31 0 5-5.111 5.313-12.871 7.787-19.687 10.125l-2.959 1.036A789 789 0 0 1 762 657l-3.594 1.223c-7.952 2.48-16.106 3.973-24.281 5.527l-3.534.677c-5.962 1.089-11.53 1.841-17.591 1.573v-2l2.965-.988 1.928-.643 3.984-1.328 8.27-2.755q3.428-1.14 6.853-2.286l2.432-.81q3.976-1.332 7.943-2.69l2.953-1.01c9.407-3.28 18.583-7.082 27.71-11.072l3.278-1.39 2.89-1.259c3.285-.904 5.508-.548 8.794.231"/><path fill="#f6f6f6" d="M769 932c4.413 2.166 7.09 4.439 9 9 .645 4.973-.079 8.344-2.742 12.488-3.098 3.723-6.566 4.413-11.196 5.074-4.311-.149-6.627-2.108-9.714-4.957-2.66-3.168-2.625-6.613-2.567-10.613.323-2.935 1.422-4.682 3.219-6.992l1.563-2.312c3.91-2.708 7.84-2.407 12.437-1.688"/><path fill="#ef703d" d="M465.438 265.688c3.086.376 3.67.909 5.562 3.312 2.071 6.658 2.614 14.065 2 21-1 1-1 1-4.437 1.25L465 291c-4.095-6.143-4.651-15.676-4-23 2-2 2-2 4.438-2.312"/><path fill="#ef6e3d" d="M418.238 292.54c3.996.666 6.17 3.087 8.95 5.835l1.615 1.54A386 386 0 0 1 435 306c-.33 3.297-.623 4.623-3 7-2.67.579-4.3.447-6.624-1.036-1.808-1.459-3.499-2.995-5.188-4.589l-1.811-1.582c-2.93-2.713-4.256-4.02-4.889-8.066.633-3.371 1.338-4.485 4.75-5.188"/><path fill="#ef6e3e" d="M533.238 285.52C536 286 536 286 538 288c.767 3.788-.04 5.061-2.195 8.332a204 204 0 0 1-2.93 3.48l-1.437 1.811c-2.557 3.023-3.646 4.265-7.684 4.838C521 306 521 306 519.062 304.812 518 303 518 303 518.11 300.783c1.205-3.761 3.453-6.247 6.078-9.094l1.424-1.667c2.486-2.729 3.932-3.953 7.627-4.501"/><path fill="#515151" d="m576 611-1 2c-2.405.67-2.405.67-5.574 1.254l-3.463.65-3.65.659c-1.186.22-2.371.442-3.592.67A786 786 0 0 1 543 619v-2l4-2-1-2c10.12-1.608 19.756-2.262 30-2"/><path fill="#fdf7f4" d="M690 549h1l.113 2.52.2 3.293.175 3.269c.543 3.093 1.065 4.048 3.512 5.918-1.683 6.644-3.686 10.59-9 15h-2c3-9 3-9 4.063-11.812 1.085-3.69 1.384-7.246 1.562-11.063l.117-2.086q.138-2.52.258-5.039"/><path fill="#535253" d="m732 660-1 3 2 1c-6.742 1.258-13.135 2.264-20 2v-2a785 785 0 0 1 7.25-2.562l2.066-.749c6.267-2.16 6.267-2.16 9.684-.689"/><path fill="#575656" d="m595 662 2 1-4 5 17-1c-3 3-3 3-6.398 3.328l-3.977-.078-3.96-.047c-3.018-.167-5.736-.502-8.665-1.203.063-1.812.063-1.812 1-4 3.438-1.812 3.438-1.812 7-3"/><path fill="#fbede6" d="M676 541c2 1 2 1 2.938 3.75.062 3.25.062 3.25-2.102 5.59L674 553a695 695 0 0 0-5.312 5.813c-.884.975-1.767 1.951-2.676 2.957L664 564l-2-1 1.828-1.906c5.8-6.213 10.24-11.662 12.172-20.094"/><path fill="#f8dbcc" d="M690 549h1l.113 2.52.2 3.293.175 3.269c.543 3.093 1.065 4.048 3.512 5.918l-1.875.25c-2.31.563-2.31.563-3.375 2.813L689 569l-1-2 1-3c.227-2.566.416-5.117.563-7.687l.13-2.127q.158-2.593.307-5.186"/><path fill="#e1e1e1" d="m574 614-1 5-3 1-.75-1.875c-1.456-2.476-2.628-3.076-5.25-4.125 3.663-.75 6.424-1.238 10 0"/><path fill="#5d5c5c" d="M561 611h15l-1 2c-5.413 1.3-8.891.772-14-1z"/><path fill="#dcdcdc" d="M769 932v1l-9 1v2c-2.5 1.625-2.5 1.625-5 3 0-3 0-3 1.375-5.187 3.993-2.757 7.915-2.137 12.625-1.813"/><path fill="#dedede" d="M536 877c2.5 2.174 3.436 3.73 4 7l-6 1z"/><path fill="#a2a2a3" d="M688 626v2h9v1h-17c4.5-3 4.5-3 8-3"/><path fill="#cdcdcc" d="M739 939h1l.184 2.45.254 3.237.246 3.2c.28 2.764.718 5.402 1.316 8.113-2.016-1.578-2.016-1.578-4-4-.172-3.234-.172-3.234.25-6.75l.39-3.547c.12-.892.238-1.784.36-2.703"/><path fill="#fbe4d3" d="m687 570 1 3h2c-1.514 3.785-2.014 4.007-6 6z"/><path fill="#f0f1f1" d="M899 493h1l1 14-3 1z"/><path fill="#4a4949" d="m559 612 9 1c-3.991 1.996-5.7 2.195-10 2z"/><path fill="#4b4a4a" d="M726 956h2l3 9h-2c-3-5.625-3-5.625-3-9"/><path fill="#636463" d="m556 880-1 2c-3.918.813-7.18 1.376-11 0 4.12-1.292 7.668-2.263 12-2"/><path fill="#4a4a4b" d="M571 877c-2.62 2.62-4.352 2.708-8 3-2.375-.937-2.375-.937-4-2 3.981-1.327 7.85-1.07 12-1"/><path fill="#636363" d="m732 660-1 3 2 1h-4v-2l-4-2c3.133-1.044 3.99-.934 7 0"/><path fill="#5a5a5a" d="M544 657v2h-3v2h-7c2.979-2.979 5.803-4 10-4"/><path fill="#555" d="M897 524h2c-.438 4.557-.85 7.577-4 11 1-7.429 1-7.429 2-11"/><path fill="#e6e6e6" d="M796 738c1 3 1 3 .223 4.824L793 748l-3-1z"/><path fill="#929293" d="m556 413 3 1-.5 2.313c-.591 2.723-.591 2.723-.5 5.687-1.5-1.187-1.5-1.187-3-3-.25-2.625-.25-2.625 0-5z"/><path fill="#525251" d="M659.75 303.313 662 304c-1.687 1.563-1.687 1.563-4 3-2.75-.312-2.75-.312-5-1 2.455-2.273 3.338-3.075 6.75-2.687"/><path fill="#505051" d="M486 913c1 2 1 2 .25 5.063L485 921l-3 1c1.75-6.75 1.75-6.75 4-9"/><path fill="#e0e0e0" d="M717 880c2 3 2 3 2 6l-8-1v-1h5z"/><path fill="#636363" d="m709 855 3 1 1 9c-2.19-3.285-2.998-6.207-4-10"/><path fill="#d4d4d5" d="M673 312c-2.57 2.112-4.63 3.663-8 4l-2-2a328 328 0 0 1 3.875-1.562l2.18-.88C671 311 671 311 673 312"/><path fill="#dadada" d="M732 923c1 3 1 3-.437 6.188L730 932h-2c1.059-3.403 2.009-6.014 4-9"/><path fill="#656465" d="M702 833h3l-1 5 2 1-2 3z"/></svg>